<?xml version="1.0" standalone="no"?>
<!DOCTYPE svg PUBLIC "-//W3C//DTD SVG 1.1//EN" "http://www.w3.org/Graphics/SVG/1.1/DTD/svg11.dtd" >
<svg xmlns="http://www.w3.org/2000/svg">
<metadata>
This is a custom SVG webfont generated by Font Squirrel.
Copyright   : Copyright c ShyFonts Type Foundry 2000 All rights reserved
</metadata>
<defs>
<font id="webfontw4VTnUBa" horiz-adv-x="462" >
<font-face units-per-em="2048" ascent="1638" descent="-410" />
<missing-glyph horiz-adv-x="716" />
<glyph unicode=" "  horiz-adv-x="716" />
<glyph unicode="&#x09;" horiz-adv-x="716" />
<glyph unicode="&#xa0;" horiz-adv-x="716" />
<glyph unicode="!" horiz-adv-x="323" d="M14 82q6 37 52 80q45 41 81 41q16 0 35 -33q16 -35 15 -55q-6 -35 -52 -86q-43 -47 -77 -47q-14 0 -37 41q-19 41 -17 59zM113 295q2 10 16 70l31 120q12 49 33 123l88 324q8 25 14 59q4 14 8 29.5t6 30.5q2 10 21 63q12 37 20 51q41 76 96 76q39 0 33 -45 q-2 -6 -8 -33.5t-12 -48.5l-45 -156l-60 -188l-78 -264l-20 -80l-12 -40.5t-11 -41.5q-43 -115 -96 -115q-36 0 -24 66z" />
<glyph unicode="&#x22;" horiz-adv-x="323" d="M195 1001q0 10 22 43q25 31 27 50l8 24l10 39q4 14 27 37q18 18 37 18q16 0 28 -34q14 -35 8 -54l21 43q8 23 37 45q28 25 49 25q12 0 23 -29q12 -29 6 -47q-10 -53 -70 -141q-66 -100 -109 -100q-37 0 -28 38q0 4 10 29l31 66q-51 -88 -109 -88q-38 -1 -28 36z" />
<glyph unicode="#" horiz-adv-x="675" d="M137 768q12 63 131 76h-12q6 0 35 4q43 6 53 8l10 45q-14 -2 -69 -8q-18 -2 -43 -2q-33 0 -29 31q12 57 170 79q12 46 18 74q4 23 13 37q31 76 75 76q33 0 27 -33q0 -4 -3 -20.5t-5 -28.5t-9 -42t-12 -48q29 4 103 10q2 6 5 25.5t7 29.5l19 74q10 25 38 51q28 25 56 25 q35 0 26 -49q-12 -55 -14 -68q-2 -6 -8 -32.5t-10 -41.5q35 2 59 4q8 0 21.5 1.5t17.5 1.5q35 0 29 -33q-4 -23 -31 -47q-27 -23 -49 -27l-84 -8l-15 -45q57 4 68 4h37q23 0 34 -9.5t9 -25.5q-6 -23 -33 -47q-29 -27 -51 -29q-25 -4 -100 -6q-6 -25 -13.5 -41t-9.5 -26 q-2 -8 -6 -20.5t-6 -16.5q-31 -72 -76 -72q-37 0 -18 84q6 45 18 84q-37 -4 -51 -6q-6 0 -19.5 -1t-19.5 -3q-45 -158 -117 -158q-29 0 -27 31q0 -10 37 112q-33 -4 -53 -4q-8 0 -28.5 -1t-30.5 -1q-70 0 -64 33zM455 868l43 6q8 2 24.5 3.5t24.5 1.5l12 41l-92 -9z" />
<glyph unicode="$" horiz-adv-x="667" d="M74 295q6 31 39 59q37 33 63 33q4 0 156 -43l49 240q-113 55 -158 90q-94 72 -78 149q18 98 134 162q53 29 96 41q70 20 110 27q8 51 27 121q3 22 31 43q27 20 51 20q35 0 22 -68l-6 -24q-6 -25 -8 -31l-10 -51l26 2q53 0 111 -12q41 -10 58.5 -23.5t13.5 -32.5 q-2 -20 -29 -39q-23 -16 -43 -16q-14 0 -27 2q-6 2 -19 3t-19 1q-14 2 -39 6q-12 2 -29 2h-14q-2 0 -5 -1l-4 -1h-6q-10 -51 -24 -114l-31 -142q250 -123 225 -270q-23 -119 -129 -182q-88 -57 -215 -62q-10 -55 -16 -84q-6 -31 -8 -34q-29 -80 -78 -80q-31 0 -25 30l5 32 q5 32 10 48l18 101q-18 4 -59 16q-20 6 -70 23q-100 36 -96 59zM281 877q-12 -66 135 -134l47 201q-172 -20 -182 -67zM428 326q4 0 12.5 -1t14.5 -1h37l22 -2q68 0 76 49q16 84 -115 161q0 -3 -12 -55z" />
<glyph unicode="%" horiz-adv-x="737" d="M14 16q3 18 13 37l84 131l106 156l201 283l114 163l158 230l29.5 38.5l44.5 57.5l47 62q51 57 88 57q49 0 39 -41l-4 -8l-6 -13q-71 -117 -191 -282l-100 -139l-98 -140l-152 -219l-115 -164l-25.5 -38.5l-25.5 -39.5l-74 -106q-47 -59 -102 -59q-39 -1 -31 34zM190 948 q12 78 101 162q80 76 162 109q35 12 51 12q25 0 45 -31q29 18 43 19q25 0 43 -54q16 -51 10 -84q-18 -100 -127 -188q-111 -86 -213 -86q-27 0 -53 10q-23 8 -39 29q-12 16 -20 45q-9 30 -3 57zM303 137q12 77 92 154q82 84 156 84q18 0 45 -21q39 37 78 37q100 -39 82 -147 q-14 -94 -121 -176q-111 -82 -201 -82q-29 0 -59 10q-23 8 -45 31q-18 18 -25 47q-8 32 -2 63zM330 1004q-12 -68 47 -68q27 0 41 4q20 6 39 18q12 8 28 29q10 14 15 37q2 18 -6 57q-9 40 -7 49q-149 -63 -157 -126zM436 193q-6 -33 15 -56q18 -20 53 -20q37 0 67.5 18.5 t36.5 48.5q6 29 -30 84q-16 -6 -27 -6q-2 0 -7 1t-9.5 1t-9.5 1t-7 1q-70 1 -82 -73z" />
<glyph unicode="&#x26;" horiz-adv-x="583" d="M70 362q25 129 239 238q-84 43 -67 137q18 84 108 154q80 61 172 78q61 158 123 157q33 0 27 -39q-8 -33 -51 -126q84 -41 77 -68q-2 -14 -26 -39q-20 -18 -41 -18q-12 0 -53 14l-14.5 -29.5t-16.5 -38.5l-37 -86q51 -2 74.5 -12t19.5 -31q-14 -68 -160 -102l-59 -129 l-49 -103h35q29 0 47 3q55 6 67 8l66 8q37 4 47 4l8 2q37 0 31 -37q-12 -59 -164 -94q-108 -25 -203 -25q-39 -82 -86 -82q-31 0 -24 29q4 16 8 27q8 23 18 39q-136 36 -116 161zM203 410q-10 -41 49 -70l72 166q-111 -43 -121 -96zM371 786q-6 -43 43 -67l26 57l15.5 37 t21.5 47q-96 -19 -106 -74z" />
<glyph unicode="'" horiz-adv-x="204" d="M186 1014q0 6 52 92q12 23 38 63q14 18 19 29q31 35 57 35q31 0 25 -47q-12 -51 -60 -123q-57 -82 -102 -82q-35 0 -29 33z" />
<glyph unicode="(" horiz-adv-x="346" d="M109 236q-29 158 0 325q29 164 94 324q29 76 82 166q39 68 96 131q43 51 78 51q41 0 35 -39q0 -8 -9 -18l-65 -115l-86 -164q-70 -154 -96 -305q-43 -246 30 -410q10 -18 19 -37q4 -10 9 -18t9 -18q31 -59 29 -70q-8 -45 -76 -55q-108 62 -149 252z" />
<glyph unicode=")" horiz-adv-x="335" d="M53 16l4 19l66 115l88 163q39 92 59 156q25 78 37 149q43 233 -33 408q-59 133 -59 145q8 57 78 58q104 -51 145 -262q29 -152 0.5 -316t-96.5 -323q-37 -86 -84 -166q-43 -74 -96 -133q-43 -47 -76 -47q-43 -1 -33 34z" />
<glyph unicode="*" horiz-adv-x="626" d="M111 631q6 33 264 231q-135 184 -127 236q8 47 69 55q25 -12 113 -127l23 127q8 31 36 51q33 27 60 27q31 0 26 -72q-2 -4 -3 -13t-1 -13q-4 -20 -6 -35q-6 -31 -8 -39q-4 -25 -10 -58l96 95q78 68 107 67q39 0 32 -41q-9 -52 -239 -233q176 -201 172 -225 q-6 -31 -37 -54q-33 -27 -60 -26q-18 0 -135 141q-14 -57 -26 -100q-27 -49 -70 -50q-18 0 -18 78q-2 68 4 103q-203 -158 -236 -158q-28 0 -26 33z" />
<glyph unicode="+" horiz-adv-x="468" d="M39 205q4 29 47 53q49 31 141 37l4 31q4 25 13 51q3 9 12 18l16 17l21 14q6 4 18 4q53 0 31 -133q29 0 48.5 1t29.5 1h31q16 0 38 -12q20 -12 21 -29q-2 -20 -37 -51q-29 -27 -55 -33q-25 -4 -41 -6h-53l-11 -49q0 -6 -2 -15q0 -6 -6 -18q-4 -8 -16 -25q-10 -14 -27 -24 q-31 -25 -55 -25q-12 0 -19 27q-4 20 -4 41l9 45q2 10 5 22.5t5 22.5l-10 2q-23 0 -41 -2q-4 0 -12.5 -1t-10.5 -1h-14q-20 0 -43 10q-18 8 -26.5 14.5t-6.5 12.5z" />
<glyph unicode="," horiz-adv-x="247" d="M-43 -205q4 16 84 90q80 72 96 156q0 2 1 9t1 13q0 18 2 23q12 74 72 74q14 0 22.5 -45t6.5 -64q-12 -78 -78 -162q-70 -86 -146 -125q-16 -8 -30 -8q-37 0 -31 39z" />
<glyph unicode="-" d="M39 205q6 33 45 53q70 41 272 41q160 0 154 -41q-6 -23 -39 -51.5t-59 -34.5q-18 -4 -95 -4h-22q-4 0 -15.5 1t-17.5 1q-25 2 -55 2q-27 0 -47 -2q-6 0 -15.5 -1t-13.5 -1h-18q-20 0 -43 10q-31 11 -31 27z" />
<glyph unicode="." horiz-adv-x="206" d="M12 57q10 47 47 88q39 43 82 43q31 0 62 -18q34 -22 30 -49q-8 -45 -63 -90q-57 -45 -100 -45q-70 -1 -58 71z" />
<glyph unicode="/" horiz-adv-x="624" d="M-39 16q3 15 12 37q18 35 82 131l107 158l102 139l101 142l112 163l160 230l63 88q8 12 17.5 24.5t11.5 14.5q70 88 115 88q49 0 39 -41l-4 -8l-7 -13q-18 -31 -81 -129l-109 -153l-98 -139l-101 -140l-137 -196l-186 -279q-102 -152 -168 -151q-39 -1 -31 34z" />
<glyph unicode="0" horiz-adv-x="841" d="M86 176q-31 135 4 346q68 375 275 563q-25 -4 -31 -4q-39 0 -33 37q10 59 109 90q70 25 143 25q223 0 338 -205q100 -184 59 -420q-27 -164 -131 -309q-98 -139 -254 -233q-147 -82 -254 -82q-176 -1 -225 192zM201 428q0 -72 12 -137q37 -176 180 -176q133 0 256 129 q121 121 156 307q37 201 -51 367q-94 178 -293 178l-19 -2q0 -2 1 -4l1 -3v-4q-4 -16 -22 -34q-156 -182 -205 -457q-16 -92 -16 -164z" />
<glyph unicode="1" horiz-adv-x="182" d="M18 43q-2 57 5 88q25 151 73 363l47 180l45 182l25 141q43 240 147 240q39 0 25 -82q-3 -22 -18 -80q-14 -59 -43 -162l-129 -503q-41 -168 -66 -293q-12 -78 -27 -97q-25 -41 -63 -40q-19 0 -21 63z" />
<glyph unicode="2" horiz-adv-x="776" d="M31 180q18 113 211 277l180 137l178 137q193 156 209 250q25 129 -154 129q-88 0 -198 -37q-121 -41 -187 -96q-2 -2 -47 -41q-27 -23 -51 -29q-27 6 -22 33q2 16 34 55q84 102 262 172q168 66 295 66q106 0 164 -49q66 -53 43 -158q-20 -123 -217 -301q-33 -33 -108 -90 l-246 -191q-188 -145 -201 -208q-10 -57 44 -86t173 -29q16 0 86 4q16 0 123 10q129 14 207 15q49 0 43 -37q-3 -15 -12 -31q-8 -14 -25 -27q-20 -16 -31 -22q-20 -12 -32 -15l-4 -1q-4 -1 -11.5 -2t-15.5 -1q-6 0 -36 -5t-52 -7q-41 -4 -102.5 -9t-73.5 -5q-74 -6 -121 -6 q-117 0 -211 38q-114 54 -94 160z" />
<glyph unicode="3" horiz-adv-x="804" d="M6 162q2 31 41 61q35 31 66 31q15 0 24 -6l53.5 -30.5t45.5 -24.5l63 -31q86 -37 186 -37q102 0 154 39q68 52 86 153q14 84 -47 156q-33 33 -127 98q-70 49 -59 84q6 41 167 166q164 123 172 180q8 45 -59 82q-53 29 -106 29q-66 0 -164 -35q-90 -33 -146 -82 q-77 -68 -98 -67q-25 0 -20 28q0 6 2 8.5t2 5.5q2 3 2 5q72 111 225 186q139 70 272 70q94 0 160 -47q78 -53 62 -140q-18 -88 -121 -184l-183 -149l164 -133q74 -80 54 -203q-29 -166 -177 -281q-147 -111 -315 -110q-88 0 -209 39q-123 47 -164 108q-12 13 -6 31z" />
<glyph unicode="4" horiz-adv-x="835" d="M82 506q14 78 80 205q49 78 59 96l60 98q39 70 94 76l18 -20l-2 -17q-10 -23 -16 -31t-15.5 -26.5t-23.5 -42.5l-49 -84q-15 -28 -19 -31q-53 -100 -65 -170q-10 -59 33 -90t137 -31q8 0 22.5 1t41 3t48.5 4q61 4 236 23q41 131 72 264q29 123 43 201q8 39 8 43 q2 12 5 27.5t5 33.5q4 33 8 62q2 29 6 45l6 31q1 5 4 9l1 3q25 51 65 51q23 0 29 -22q8 -31 2 -87q-8 -74 -21 -157q-23 -121 -49 -238q-35 -154 -63 -262q45 4 59 4h45q86 0 80 -39q-2 -23 -39 -55q-33 -31 -57 -31q-6 0 -24.5 -1t-28.5 -1q-43 0 -70 -2l-11.5 -40.5 l-17.5 -61.5l-41 -144l-18 -55q-14 -29 -41 -47q-27 -20 -55 -20q-35 0 -29 34q0 2 1 6.5t3 11.5t4 13q10 41 21 74l26 92q8 25 11.5 39l9.5 37.5l14 52.5q-41 -4 -129 -11t-123 -10q-96 -6 -133 -6q-125 0 -179 48.5t-38 144.5z" />
<glyph unicode="5" horiz-adv-x="808" d="M33 182q15 55 73 68l15 -8q92 -141 350 -142q178 0 221 54q18 23 21 36q20 119 -131 281l-164 158q-96 96 -135 180q-49 102 -35 180q18 94 110 162q109 82 326 82q197 0 285 -25q25 -8 22 -32q-4 -27 -41 -62q-35 -33 -63 -33q-8 0 -35 1t-45.5 1t-58 3.5t-54.5 3.5 q-86 4 -110 4q-18 0 -45 1t-35 1q-100 0 -109 -58q-2 -14 -2 -39q18 -121 152 -258l106 -106l107 -109q117 -150 96 -276q-6 -33 -29 -74q-53 -98 -178 -151q-101 -43 -227 -43q-309 -1 -387 200z" />
<glyph unicode="6" horiz-adv-x="882" d="M55 344q37 197 193 465q154 256 325 410q20 18 41 18q37 0 27 -33q-4 -18 -16 -30q-211 -231 -330 -472q-41 -84 -70 -157q-27 -70 -39 -137q-51 -293 234 -293q133 0 229 39q135 53 158 163q23 127 -94 193q-96 53 -232 53q-6 0 -30 -4q-6 0 -12.5 -1t-10.5 -2t-6 -1 q-29 0 -41 11.5t-8 31.5q8 57 90 86q55 20 129 21q168 0 270 -78q119 -88 92 -248q-31 -188 -231 -299q-174 -96 -371 -96q-176 0 -252 92q-76 90 -45 268z" />
<glyph unicode="7" horiz-adv-x="800" d="M147 16q25 137 584 750q143 156 156 225q10 61 -50.5 92t-193.5 31q-29 0 -102 -4q-55 -3 -123 -12q-29 -4 -135 -17q-33 -4 -70 -4q-23 0 -33 7.5t-8 23.5q6 33 57 61q27 18 244 43q195 25 260 25q332 0 295 -199q-16 -96 -166 -268l-256 -283l-131 -157 q-51 -63 -104 -140l-39 -61l-58 -86q-43 -61 -96 -61q-39 -1 -31 34z" />
<glyph unicode="8" horiz-adv-x="849" d="M39 213q31 182 410 487q-256 158 -236 281q20 127 201 195q133 51 284 51q197 0 303 -66q23 -12 17 -31q-2 -8 -10 -20l-19 -18q-8 -8 -22 -13q-16 -4 -23 -4l-68 16h-2l-2 1h-2l-2 1h-2h-2l-2 1h-2l-2 1l-4 1q-74 16 -201 16q-289 0 -301 -82q-8 -39 51.5 -94 t184.5 -127q20 14 86 68l121 98l22 22q6 6 10 12.5t11 10.5q25 23 55 22q41 0 35 -38q-12 -53 -252 -244q139 -78 188 -139q76 -92 54 -228q-31 -182 -211 -303q-164 -109 -351 -108q-127 0 -223 49q-117 63 -94 182zM188 274q-14 -84 88 -124q68 -27 175 -27q113 0 174 31 q125 59 145 184q18 104 -65 190q-53 49 -170 121q-327 -262 -347 -375z" />
<glyph unicode="9" horiz-adv-x="876" d="M129 786q31 178 244 320q195 125 385 125q156 0 235.5 -96.5t53.5 -251.5q-31 -182 -240 -445l-94 -112l-133 -162q-4 -6 -12.5 -16.5t-15.5 -20.5l-15 -21l-64 -75q-43 -49 -80 -49t-31 36q6 35 142 201l88 107l88 106q195 244 223 399q20 123 -43 193q-66 72 -188 72 q-119 0 -246 -70q-143 -78 -164 -192q-16 -96 62 -158q70 -51 174 -51q94 0 178 57t94 57q29 0 27 -30q0 -8 -13 -23q-137 -184 -368 -184q-138 0 -221 73q-89 78 -66 211z" />
<glyph unicode=":" horiz-adv-x="221" d="M12 57q10 47 47 88q39 43 82 43q31 0 62 -18q34 -22 30 -49q-8 -45 -63 -90q-57 -45 -100 -45q-70 -1 -58 71zM90 504q10 55 60 102q51 51 104 51q31 0 53.5 -22.5t16.5 -56.5q-12 -57 -66 -97q-53 -41 -108 -41q-72 1 -60 64z" />
<glyph unicode=";" horiz-adv-x="256" d="M-43 -205q4 16 84 90q80 72 96 156q0 2 1 9t1 13q0 18 2 23q12 74 72 74q14 0 22.5 -45t6.5 -64q-12 -78 -78 -162q-70 -86 -146 -125q-16 -8 -30 -8q-37 0 -31 39zM150 510q10 51 55 96q45 49 92 49q31 0 45 -32q16 -35 10 -68q-6 -39 -53 -78q-43 -37 -86 -37 q-75 0 -63 70z" />
<glyph unicode="&#x3c;" horiz-adv-x="370" d="M39 207q6 41 82 84q2 2 14 7t23 11l75 37q41 20 54 29q10 6 29.5 23.5t25.5 21.5q31 25 51 24q33 0 27 -34q-12 -72 -180 -160q164 -90 153 -150q-6 -29 -41 -57.5t-63 -28.5q-14 0 -23 6q-27 16 -45 31q-16 10 -36.5 26.5l-45.5 37.5q-55 43 -78.5 64.5t-21.5 27.5z" />
<glyph unicode="=" horiz-adv-x="409" d="M27 147q0 8 8 21q4 6 16 18q10 10 23 17q18 10 22 10q39 0 68 2q6 0 41 2t57 4q147 20 148 21q41 -4 32 -37q-12 -57 -84 -76q-111 -29 -208 -29q-16 0 -70 17q-53 14 -53 30zM47 279q6 45 57 57q41 10 166 10q4 0 14.5 1t16.5 1h20.5t24.5 2q51 6 78 6q43 0 33 -37 q-8 -49 -101 -73q-61 -18 -133 -19q-33 0 -100 17q-80 19 -76 35z" />
<glyph unicode="&#x3e;" horiz-adv-x="360" d="M53 57q6 37 176 146q-160 137 -153 176q4 12 8 20.5t16 20.5q8 8 21 14q8 4 24 4q12 0 140 -90q18 -10 37 -22q10 -6 18 -12.5l16 -12.5q53 -37 47 -55q-6 -41 -141 -133q-141 -94 -178 -95q-39 0 -31 39z" />
<glyph unicode="?" horiz-adv-x="835" d="M18 57q6 49 62 99q51 45 106 45q20 0 43 -17q25 -16 25 -32q-8 -53 -66 -113q-59 -59 -110 -59q-20 0 -41 28q-25 33 -19 49zM100 319q18 98 211 236l357 229q190 126 202 191q10 66 -45 97.5t-180 31.5q-164 0 -334 -100v-5q-45 -76 -98 -75q-41 0 -33 45q2 23 72 86 q45 39 49 43q23 16 43 28q186 106 408 107q117 0 190 -43q92 -52 74 -160q-22 -114 -215 -264q-49 -39 -133 -96l-219 -140q-188 -119 -195 -151q0 -4 2 -8q4 -8 6 -15q4 -12 4 -16v-14q-6 -35 -41 -64q-33 -31 -65 -31q-16 0 -27 9q-16 12 -20 20q-8 14 -11 29q-4 20 -2 30 z" />
<glyph unicode="@" horiz-adv-x="907" d="M86 481q18 104 90 221q98 158 262 279q186 139 340 139q139 0 215 -119q68 -109 43 -253q-25 -135 -139 -256q-129 -131 -258 -132q-43 0 -70 27q-70 -51 -123 -51q-59 0 -84 70q-18 59 -6 124q27 164 156 277q92 80 158 80q55 0 73 -45q23 -41 10.5 -96.5t-51.5 -118.5 q-47 -74 -94 -80l-8 24q0 2 2 8.5l4 12.5l5 15t5 18q4 12 9 32q3 15 6 25q12 84 -25 84q-43 0 -76 -74q-27 -51 -34 -108q-20 -111 28 -111q10 0 55.5 41t77.5 41q18 0 31 -31q8 -29 31 -28q29 0 65 22q88 53 109 174q18 111 -33 197q-55 94 -164 94q-145 0 -293 -147 q-139 -143 -167 -291q-31 -176 114 -262q117 -70 309 -70q2 0 10.5 1t14.5 1t18.5 1t20.5 1t19.5 2t17.5 2h24q43 0 37 -39q-8 -59 -119 -88q-70 -20 -157 -20q-211 0 -340 96q-156 112 -119 311z" />
<glyph unicode="A" horiz-adv-x="868" d="M80 479q45 264 262 490q59 59 107 96q68 51 116 82q152 90 258 90q176 0 176 -217q0 -62 -14 -141q-20 -133 -104 -334q-104 -258 -189 -258q-31 0 -24 28q0 4 4 13q145 299 180 489q13 72 13 126q0 161 -113 161q-129 0 -287 -143q-197 -178 -240 -418q-10 -58 -10 -110 q0 -166 104 -259q59 -51 130 -51q84 0 204 98q123 98 144 98q23 0 32 -24q27 -74 48 -98q14 -14 81 -64q23 -16 21 -37q-6 -33 -45 -63q-40 -31 -74 -31q-18 0 -47 16q-76 37 -113 117q-186 -150 -333 -149q-170 0 -250 164q-48 100 -48 215q0 55 11 114z" />
<glyph unicode="B" horiz-adv-x="929" d="M80 831q12 51 47 101q96 133 289 219q172 82 338 82q98 0 176 -49q82 -48 82 -121q0 -12 -2 -25q-18 -111 -234 -229q243 -83 243 -275q0 -29 -5 -61q-35 -193 -244 -346q-197 -145 -395 -145q-150 0 -236 96q-64 76 -64 179q0 33 7 69q10 59 29 104q29 72 51 121l57 108 q12 20 27.5 49l32 60t30.5 61q6 10 14.5 32t14.5 32q45 76 102 76q43 0 33 -41q-14 -61 -72 -170l-47 -86l-45 -86q-53 -106 -69 -197q-5 -30 -6 -57q0 -80 49 -135q66 -72 184 -72q129 0 244 82q129 88 149 209q4 20 4 38q0 85 -78 152q-80 66 -194 86q-10 0 -39 4 q-14 2 -51 6q-31 2 -27 35q8 57 92 99l164 61q125 53 133 88q1 7 1 13q0 52 -70 81q-55 25 -133 25q-123 0 -256 -57q-154 -66 -213 -162q-41 -68 -97 -76z" />
<glyph unicode="C" horiz-adv-x="737" d="M78 442q43 260 223 498q229 297 430 297q109 0 174 -78q61 -70 70 -178q4 -39 4 -61q0 -17 -2 -29q-10 -47 -76 -60l-22 17q0 8 -1 24.5t-4 24.5q-2 20 -2 31q-4 23 -10 43t-14 33q-61 109 -170 108q-86 0 -166 -74q-113 -111 -186 -247q-47 -90 -66 -144 q-29 -82 -39 -143q-11 -66 -11 -121q0 -72 19 -127q45 -131 179 -131q74 0 198 65q119 68 135 68q32 0 33 -28q0 -7 -2 -15q-3 -28 -43 -61q-72 -66 -190 -119q-129 -51 -211 -51q-166 0 -232 151q-32 76 -31 173q0 63 13 134z" />
<glyph unicode="D" horiz-adv-x="950" d="M121 1100q12 66 172 102q119 29 215 29q309 0 461 -201q102 -139 101 -308q0 -57 -11 -118q-35 -195 -176 -346q-100 -106 -262 -188q-168 -84 -297 -84q-186 0 -186 186q0 42 9 94q10 59 31 127q18 59 53 146l32 70.5t28 62.5l59 135q18 49 35 63q20 25 64 31l18 -18 l-2 -15q-2 -16 -59 -143q-111 -258 -136 -395q-8 -44 -8 -80q0 -72 32.5 -108t96.5 -36q162 0 350 152q143 115 174 293q8 45 8 88q0 112 -53 213q-70 141 -211 199q-106 41 -233 41q-51 0 -135 -15q-74 -10 -78 -10q-41 -4 -51 -4q-42 0 -43 26q1 5 2 11z" />
<glyph unicode="E" horiz-adv-x="806" d="M20 244q29 164 238 315q-108 44 -108 147q0 20 4 42q18 100 110 208q29 35 88 95q49 49 92 75q158 106 308 107q86 0 161 -41q72 -41 72 -108q0 -12 -2 -25q-2 -33 -47 -92q-43 -55 -76 -56q-29 0 -22 29q0 2 3 7t3 7q0 4 4 10.5t4 8.5l6 18q0 2 3 7.5t3 7.5q2 9 2 17 q0 87 -176 87q-152 0 -282 -127q-96 -90 -109 -174q-3 -16 -3 -30q0 -65 64 -91q43 -16 154 -16q43 0 37 -41q-8 -47 -76 -80q-20 -10 -51 -21l-55 -20q-180 -76 -203 -211q-3 -16 -3 -31q0 -149 306 -149q78 0 242 35q43 10 143 24q68 10 98 10q34 0 34 -29q0 -67 -87 -102 q-39 -16 -104 -28q-98 -18 -160 -27q-37 -4 -150 -14q-68 -6 -118 -6q-150 0 -248 55q-102 60 -102 166q0 20 3 41z" />
<glyph unicode="F" horiz-adv-x="745" d="M102 850q6 35 27 65q76 139 287 236q190 86 354 86q100 0 174 -43q84 -45 84 -118q0 -11 -2 -23q-29 -160 -434 -445q180 -54 180 -220q0 -31 -6 -66q-43 -248 -324 -619q-49 -68 -98 -68q-41 0 -33 39q6 29 82 150l49 80l50 78q57 94 83 155q33 76 41 127q4 25 5 47 q0 59 -31 95q-37 41 -127 65q-2 0 -14.5 2t-18.5 4q-8 2 -19.5 6t-23.5 6q-29 6 -22 37q10 43 137 136l239 172q131 104 144 167q1 6 1 12q0 49 -73 74q-53 20 -129 21q-68 0 -176 -29q-182 -51 -272 -157l-48 -66q-37 -39 -63 -39q-24 0 -24 23q0 4 1 10z" />
<glyph unicode="G" horiz-adv-x="880" d="M63 369q18 94 41 159q35 100 68 166q78 160 201 295q231 248 428 248q139 0 217 -115q55 -83 55 -180q0 -33 -6 -68l-4 -26q-35 -53 -74 -53q-25 0 -24 24q0 6 -2 16.5t-5 22.5q-6 43 -8 53q-47 199 -209 199q-184 0 -354 -260q-141 -215 -178 -424q-9 -48 -9 -88 q0 -74 31 -127q51 -92 181 -92q100 0 209 57q121 63 161 150q2 2 3 7t1 7q4 12 9 20q47 90 120 91q16 0 25 -27q8 -25 4 -45q-45 -276 -188 -447q-215 -260 -527 -260q-23 0 -32 9.5t-4 25.5q6 31 38 60q31 29 64 38q20 0 35 2q41 6 51 9q266 39 364 329 q-213 -164 -403 -163q-145 0 -217 68t-72 204q0 53 10 115z" />
<glyph unicode="H" horiz-adv-x="1009" d="M18 563q16 66 203 137l37 164q6 25 14 74l13 72q2 12 20 77q6 20 25 64q40 86 110 86q30 0 30 -33q0 -6 -1 -14q0 4 -18 -70l-56 -225l-12 -64q-8 -37 -18 -88q143 35 251 35q218 0 320 -135l45 160l55 182q4 12 21 70l35 98q35 80 100 80q34 0 34 -32q0 -5 -1 -11 q0 -16 -15 -53q-10 -31 -30 -103l-22.5 -81t-24.5 -91q-109 -389 -181 -792q-6 -33 -45 -60q-41 -29 -69 -28q-27 0 -29 26q-1 4 -1 12q0 27 9 76q4 35 14 70q2 12 5.5 22.5t5.5 18.5q2 12 6 29q13 70 13 129q0 299 -326 299q-90 0 -197 -27q-27 -113 -49 -195l-45 -151 q-25 -74 -31 -88l-37 -86q-66 -135 -108 -135q-15 0 -31 12q-4 8 -2 20q12 45 45 140l51 184q31 108 68 258l-160 -57z" />
<glyph unicode="I" horiz-adv-x="190" d="M6 47q0 8 6 37l19.5 95.5t23.5 123.5q49 243 99 430q49 190 98 324q63 180 131 180q30 0 30 -31q0 -10 -3 -22q-4 -12 -7 -23q-2 -12 -12 -35q-40 -104 -74 -221q-39 -137 -63 -256q-23 -104 -35 -174q-10 -51 -15 -85t-15.5 -90t-22.5 -130q-18 -84 -33 -119 q-35 -78 -104 -78q-27 0 -27 38q0 15 4 36z" />
<glyph unicode="J" horiz-adv-x="827" d="M37 356q8 33 41 62q35 33 63 33q18 0 70 -86q63 -113 115 -160q88 -86 188 -86q70 0 115 33q109 84 157 362q33 180 33 312q0 128 -31 208q-35 92 -129 92q-61 0 -225 -41q-6 0 -26 -6q-8 -2 -17 -2q-31 0 -29 31q9 55 166 92q119 31 207 31q76 0 121 -37q82 -66 90 -297 q1 -34 1 -67q0 -146 -23 -279q-45 -258 -179 -410q-145 -158 -319 -157q-113 0 -258 133q-133 122 -133 216q0 11 2 23z" />
<glyph unicode="K" horiz-adv-x="868" d="M14 20q10 57 45 189l97 371q-31 -6 -47 -7q-39 0 -29 37q12 61 108 92l11.5 48t17.5 71l41 164q33 117 45 174v15v12q6 39 68 53q23 -6 30 -57q3 -22 3 -41.5t-3 -36.5q-18 -96 -28 -135q-6 -29 -19.5 -89.5l-31.5 -140.5q356 111 532 271q72 63 119 149q37 66 78 66 q28 0 28 -23q0 -5 -2 -12q-2 -4 -5 -13.5l-5 -15.5q-6 -20 -18 -41q-143 -266 -643 -454q90 -57 182 -174l71 -107l70 -104q70 -100 150 -183q15 -15 12 -30q-4 -29 -43 -60q-35 -27 -66 -26q-14 0 -43 14q-41 23 -84 72q-43 51 -88 120l-143 234q-72 96 -145 133l-27 -127 q-6 -27 -9 -43t-8.5 -36.5t-11.5 -45.5q-39 -166 -80 -246q-33 -76 -100 -75q-30 0 -30 26q-1 5 1 12z" />
<glyph unicode="L" horiz-adv-x="686" d="M45 264q4 23 43 172q39 145 88 305q115 389 156 445q35 47 65.5 47t26.5 -35l-2 -6l-6 -18.5l-8 -24.5l-41 -131l-60 -201l-49 -166q-59 -219 -78 -327q-6 -34 -6 -63q0 -66 35 -101q43 -45 160 -45q55 0 143 8q25 4 86 8q25 2 61 2q23 0 60 -14q27 -10 36 -17.5t7 -15.5 q-4 -25 -35 -49.5t-55 -34.5q-34 -6 -99 -6q-6 0 -22 -1t-25 -1h-51q-100 -6 -115 -6q-27 -2 -49 -2q-273 0 -273 209q0 32 7 69z" />
<glyph unicode="M" horiz-adv-x="1173" d="M16 -8q-2 17 -2 39q0 68 21 186q111 627 352 887q123 133 229 133q131 0 132 -324q96 172 231 261q102 63 170 63q157 0 157 -296q0 -146 -38 -361q0 -4 -21 -99q-6 -35 -30 -139q-4 -18 -16.5 -67.5t-16.5 -71.5q-20 -94 -21 -99q-4 -16 -6 -28q-3 -12 -6 -19 q-12 -29 -47 -57q-35 -25 -66 -25q-37 0 -28 39q18 102 22 123q14 72 37 170q39 176 61 295q31 176 31 290q0 202 -98 202q-143 0 -256 -312q-78 -205 -119 -430q-2 -6 -2 -24q0 -10 -4 -35q0 -6 -1 -17.5t-3 -17.5q-2 -8 -3 -14t-1 -11q-8 -35 -45 -67q-39 -33 -74 -33 q-28 0 -28 52q0 27 8 69l16 88l9 52.5t7 37.5q54 305 54 473q0 205 -80 205q-25 0 -84 -61q-215 -240 -322 -850q0 -4 -2 -14.5t-4 -22.5q-2 -20 -6 -49l-12 -84q-2 -20 -25 -39q-20 -20 -41 -21q-23 0 -29 23z" />
<glyph unicode="N" horiz-adv-x="880" d="M-10 2l4 20q4 19 16.5 70t24.5 109l47 235q10 45 22.5 107.5l26.5 130.5q63 281 148 459q49 104 114 104q49 0 51 -186q0 -10 -4 -117q-2 -78 -12 -205q-6 -102 -6 -180q0 -100 4 -141q25 -289 162 -289q178 0 246 375q33 190 38 424v30q0 10 -1 31.5t-1 54.5 q0 8 -0.5 23t-0.5 22q0 12 1 21q2 20 7 53q6 31 43 61q40 31 67 31q25 0 31 -26q6 -25 6 -166q0 -293 -31 -459q-66 -358 -239 -512q-115 -98 -244 -98q-31 0 -53 6q-158 31 -178 364q-3 36 -4 94q0 37 1 89q2 96 17 305q-35 -123 -43 -156l-49 -211l-51 -217 q-6 -27 -13.5 -53.5t-14.5 -54t-11 -39.5q-18 -68 -31 -91q-33 -45 -72 -45q-20 0 -18 27z" />
<glyph unicode="O" horiz-adv-x="880" d="M72 397q29 154 118 340q37 74 80 74q16 0 29 -23q0 -2 -1 -4t-4 -10t-9 -20q-6 -14 -13.5 -35t-19.5 -49q-49 -121 -62 -205q-8 -48 -8 -92q0 -82 29 -150q51 -119 184 -119q150 0 279 127q139 137 180 357q11 67 12 127q0 107 -37 200q-70 174 -237 175q-84 0 -182 -58 q-41 -23 -142 -106q-74 -57 -94 -58q-41 0 -35 37q6 22 31 49q100 113 229 191q150 92 273 92q201 0 291 -199q53 -116 52 -252q0 -64 -11 -133q-39 -223 -179 -395q-98 -121 -219 -192q-145 -84 -270 -84q-163 0 -234 129q-40 79 -39 183q0 49 9 103z" />
<glyph unicode="P" horiz-adv-x="892" d="M4 31v12v-12zM4 31l23 110q6 43 8 54q4 33 10 75q4 16 8 42t6 34q2 10 9 53q37 199 71 301q74 211 201 355q156 178 346 178q176 0 283 -143q83 -111 82 -242q0 -38 -7 -78q-31 -170 -172 -278q-137 -106 -315 -107q-184 0 -268 86q-12 12 -8 31q2 31 41 61q39 33 69 33 q6 0 19 -4q138 -68 233 -68q215 0 248 187q6 34 6 66q0 104 -61 196q-88 125 -228 125q-301 0 -432 -756q-8 -43 -22 -125q-10 -51 -19 -78q-47 -158 -108 -157q-27 0 -23 49z" />
<glyph unicode="Q" horiz-adv-x="937" d="M70 408q49 268 254 505q217 248 481 316q29 8 37 8q37 0 26 -37q-6 -35 -61 -57q-8 -2 -19.5 -6t-23.5 -9q-10 -2 -22.5 -6t-22.5 -8q-178 -66 -328 -264q-150 -188 -180 -373q-10 -57 -10 -104q0 -74 24 -129q49 -111 178 -123q-3 41 -2 58v24q4 53 9 78q6 40 24 67 q25 41 53 41q33 0 33 -113q0 -51 2 -75q2 -29 10 -72q131 27 232 119q96 88 119 217q6 35 6 71q0 72 -25 154q-12 40 -30 86q-12 31 -48 101q-43 86 -43 94q6 31 41 59q39 33 68 33q14 0 27 -14q88 -96 133 -238q31 -103 31 -197q0 -44 -7 -86q-31 -164 -166 -309 q-127 -129 -303 -194q23 -35 74 -84l41 -37q10 -10 21.5 -18.5t21.5 -18.5q14 -12 10 -31q-6 -25 -37 -51q-33 -29 -59 -29q-2 0 -6 1l-4 1h-6q-141 51 -197 232q-29 -4 -70 -4q-180 0 -254 123q-43 76 -43 184q1 53 11 115z" />
<glyph unicode="R" horiz-adv-x="897" d="M57 381q40 224 86 344q66 172 199 307q201 205 412 205q150 0 241 -88q73 -73 73 -180q0 -29 -5 -62q-37 -209 -240 -329q-78 -45 -174 -64q-25 -4 -47 -8t-43 -6l-88 -13q16 -29 57 -88l25.5 -37.5l28.5 -39.5l51 -66l49 -63q76 -106 76 -126q0 -27 -39 -59 q-37 -27 -66 -26q-43 0 -211 227q-169 227 -159 270q6 45 71 84q72 45 211 64q77 9 129 18q49 8 80 23q119 49 144 182q5 24 4 47q0 80 -58 135q-72 72 -184 72q-201 0 -348 -225q-100 -156 -162 -500q-31 -178 -35 -242q0 -2 -1 -8t-1 -10t-1 -14.5t-1 -18.5q0 -23 -4 -51 q-3 -18 -24.5 -36.5t-43.5 -18.5q-36 0 -35 102q-1 99 33 299z" />
<glyph unicode="S" horiz-adv-x="819" d="M-4 244q6 43 43 86q37 49 76 51l16 -23q-28 -65 -31 -73q-2 -11 -2 -22q0 -82 129 -128q104 -39 228 -39q264 0 288 137q2 13 3 27q0 97 -123 219l-131 121l-132 123q-122 127 -121 235q0 17 3 33q14 84 100 150q70 53 168 76q82 20 172 20q156 0 213 -20q22 -7 22 -25 q0 -4 -2 -10q-6 -33 -38 -60q-35 -29 -68 -28q-4 0 -18.5 1t-24.5 1q-14 2 -29.5 2h-29.5q-10 0 -31 2t-29 2q-10 0 -23.5 1t-17.5 1q-213 0 -221 -62q-2 -11 -2 -21q0 -87 125 -210l127 -121l131 -121q116 -129 116 -243q0 -19 -3 -37q-4 -33 -25 -72q-61 -121 -195 -184 q-119 -51 -256 -51q-68 0 -129 12q-104 18 -190 80q-91 64 -91 142q0 14 3 28z" />
<glyph unicode="T" horiz-adv-x="763" d="M162 1196q37 23 446 29q59 0 195 6l110 4q18 0 46 1t38 1q58 0 59 -31q0 -4 -1 -8q-12 -66 -92 -86q-31 -8 -129 -8q-123 0 -195 2q-4 -23 -10 -53l-15 -72q-59 -340 -157 -766q-2 -10 -8.5 -35.5t-8.5 -38.5q-10 -51 -26 -98q-12 -28 -43 -49q-31 -25 -58 -25 q-33 0 -26 37q2 14 26 131q14 66 37 162q16 74 35 145q10 39 18.5 77l16.5 71l21.5 96t15.5 68q25 115 26 125q4 20 9.5 43.5t9.5 52.5l24 133h-346q-18 0 -39 10q-23 11 -23 22q1 25 44 54z" />
<glyph unicode="U" horiz-adv-x="913" d="M111 266q-12 75 -12 163q0 134 28 296q2 6 7 34.5l9 49.5q0 4 11.5 55l19.5 86q20 94 37 150l18 61q31 49 66 49q25 0 24 -37q0 -11 -2 -24q-6 -35 -32 -170l-13.5 -67l-12.5 -63.5t-7 -41.5q-32 -188 -32 -322q0 -54 5 -102q31 -272 215 -272q35 0 88 24 q297 147 396 696q0 2 10 66q6 39 12 92l15 94q10 63 10 66q2 25 43 57q37 31 65 31q23 0 27 -31v-13q0 -94 -39 -323q-77 -449 -356 -712q-180 -168 -342 -168q-209 0 -258 276z" />
<glyph unicode="V" horiz-adv-x="851" d="M164 1171q6 45 65 62l23 -8q31 -78 70 -281q14 -76 36 -237l68 -453q154 297 481 786q129 197 193 197q34 0 33 -28v-11q-4 -16 -17 -35l-237 -362q-90 -139 -99 -152q-78 -125 -164 -278q-63 -115 -131 -256q-18 -47 -41 -76q-51 -68 -102 -68q-25 0 -31 29l-22 195 q-6 61 -35 286l-51 402q-39 270 -39 288z" />
<glyph unicode="W" horiz-adv-x="1177" d="M158 567q-12 200 -12 340q0 172 18 269q3 18 24 36q25 20 41 21q20 0 27 -23q8 -27 10 -57q4 -45 4 -82v-143q6 -180 27 -379q16 -162 53 -316l172 375l150 348q31 88 47 107q35 59 90 59q23 0 29 -28q0 -2 1 -5.5t2 -9.5t1 -12q2 -18 6 -68q0 -6 2 -35.5t4 -50.5 q2 -27 6 -57.5t6 -64.5q6 -74 64 -562q156 279 311 678q10 29 51 135l18.5 45l24 56l21.5 49q31 39 61 39q29 0 27 -33q-12 -61 -96 -287q-102 -266 -170 -415q-83 -181 -160 -320q-115 -201 -184 -201q-29 0 -35 27q0 10 -8 66q-4 23 -11.5 85l-11.5 97q-27 211 -35 293 q-18 199 -20 215q-94 -229 -213 -475l-97 -195q-2 -4 -5 -11t-5 -11q-8 -16 -12 -23q-45 -63 -98 -63q-29 0 -37 20q-59 135 -88 567z" />
<glyph unicode="X" horiz-adv-x="851" d="M-33 -8l2 16q0 6 11 27l20 51q115 246 432 584q-111 283 -194 434q-31 59 -31 65q8 51 63 64l23 -6q61 -92 125 -205q53 -98 119 -244q446 444 505 445q36 0 37 -29q0 -6 -2 -12q-10 -25 -18 -35q-10 -12 -37 -39q-31 -31 -49 -47l-58 -51l-94 -80q-23 -18 -41 -37 l-211 -205l140 -323l36 -80l37 -78q53 -115 54 -149q0 -26 -39 -58q-35 -25 -62 -25q-53 0 -270 605q-233 -258 -373 -500q-29 -57 -41 -66q-20 -25 -61 -34z" />
<glyph unicode="Y" horiz-adv-x="786" d="M143 883q28 151 86 288q27 59 93 70l24 -16l-4 -19l-16 -40l-15 -44q-33 -98 -45 -170q-11 -66 -11 -122t11 -101q31 -125 146 -125q178 0 399 381l43 78q49 76 109 76q34 0 34 -32q0 -6 -2 -13l-10 -39q-4 -14 -16 -51q-41 -115 -78 -203l-127 -309l-125 -297l-47 -136 q-39 -80 -107 -79q-39 0 -32 38q10 55 24 93l53 147q14 39 56 131l127 295q-199 -211 -367 -211q-150 0 -199 137q-17 52 -17 126q0 65 13 147z" />
<glyph unicode="Z" horiz-adv-x="827" d="M0 119q23 133 340 405l227 181l228 182q80 68 90 123q1 7 1 14q0 92 -233 92h-28q-6 0 -18.5 -1t-20.5 -1h-43q-8 0 -21.5 -1t-19.5 -1h-41q-43 0 -131 16q-100 21 -101 44q0 20 27 40q23 20 45 21h94q6 0 16.5 -1t14.5 -1h25h38q10 0 113 4q51 2 115 2q127 0 209 -31 q102 -40 102 -120q0 -11 -2 -23q-23 -119 -203 -272l-221 -175l-303 -251q-79 -72 -115.5 -118t-36.5 -79q0 -49 111 -49q23 0 109 4q25 2 151 14q125 12 154 15q16 0 53 3t53 3q58 0 59 -31q0 -4 -1 -8q-12 -70 -95 -90q-29 -2 -69 -9l-162 -20q-37 -4 -93.5 -9t-76.5 -7 q-45 -4 -107 -4q-236 0 -235 115q0 12 2 24z" />
<glyph unicode="[" horiz-adv-x="315" d="M2 8q-6 12 12 101q4 18 13.5 69l21.5 117l55 260l22.5 106.5t16 76.5l15.5 79l37 184q4 20 9 49t7 37q6 31 12 52q20 63 150 88q47 10 67 10q15 0 43 -18q29 -18 27 -29q-6 -35 -72 -57l-49 -9q-29 -4 -47 -8l-6 -41q0 -4 -1 -12t-3 -12l-25 -115l-78 -381l-34 -186 l-45 -252q-4 -8 0 -8q12 4 22 4q12 0 51 12t64 12q45 0 35 -39q-8 -47 -105 -88q-80 -31 -137 -30q-72 -1 -78 28z" />
<glyph unicode="\" horiz-adv-x="624" d="M168 1190q10 41 49 41q35 0 66 -57l24 -58l16 -38q15 -38 23 -62l55 -164l78 -229q61 -168 84 -238q84 -250 109 -332q6 -25 4 -37q-8 -35 -47 -34q-55 0 -82 59l-62 184l-57 172l-72 211l-55 152l-26.5 72.5l-28.5 80.5q-84 244 -78 277z" />
<glyph unicode="]" horiz-adv-x="319" d="M20 16q6 37 68 56q46 6 98 18l15 70l26 137l70 354q4 18 27 144l51 280q0 6 6 12l4 5q-6 2 -10 2q-25 0 -68 -13q-47 -14 -65 -14q-39 0 -33 41q10 51 102 90q80 35 133 35q86 0 82 -45l-24 -164q-20 -109 -33 -170l-49 -240l-51 -239l-33 -170q-12 -70 -16.5 -82 t-8.5 -30.5t-6 -24.5q-25 -65 -147 -86q-20 -4 -33 -5q-6 0 -18.5 -1t-18.5 -1q-16 0 -43 15q-27 12 -25 26z" />
<glyph unicode="^" horiz-adv-x="491" d="M156 848l6 12q4 8 8 14q10 16 26.5 37t32.5 45q18 25 84 111q37 47 93 96q76 66 106 66q39 0 70 -58q8 -14 20 -47q6 -16 14 -49q27 -143 19 -192q-6 -29 -41 -60q-35 -33 -66 -32q-46 0 -55 122q-10 147 -29 172l-38 -41q-18 -18 -44 -53q-57 -74 -79 -96 q-70 -80 -100.5 -80t-26.5 33z" />
<glyph unicode="_" horiz-adv-x="817" d="M-98 -436l18 112h868l-18 -112h-868z" />
<glyph unicode="`" horiz-adv-x="344" d="M295 1497q10 41 47 41q34 0 98 -74q104 -119 99 -151q-10 -41 -54 -41q-29 0 -127 110q-43 51 -47 52q-24 30 -16 63z" />
<glyph unicode="a" d="M27 111q16 84 96 147q82 63 168 64q4 0 11 -1.5t11 -1.5q6 0 27 -4q-37 33 -82 33q-25 0 -63 -20q-41 -20 -58 -21q-37 0 -28 39q6 45 98 90q86 43 135 43q86 0 135 -65q40 -50 41 -116q0 -19 -4 -40q-23 -119 -127 -197q-108 -80 -227 -79q-35 0 -60 8q-27 8 -45 24 q-16 14 -26 41q-5 13 -5 29q0 13 3 27zM169 158q0 -45 77 -45q78 0 106 45q-20 -12 -41 -13q-10 0 -42.5 20.5t-63.5 20.5q-36 0 -36 -28z" />
<glyph unicode="b" horiz-adv-x="468" d="M49 279q25 150 111 376l90 242l45 129q8 55 43 158q27 49 65 49q12 0 19 -45q6 -41 4 -60q-4 -25 -20 -81q-12 -43 -31 -99q-8 -20 -15.5 -42.5l-15.5 -45.5l-33 -90q-31 -90 -75 -246q-29 -100 -46 -182q-9 -53 -9 -93q0 -134 102 -134q39 0 65 45q25 37 31 76 q4 17 4 31q0 42 -31 59q-16 8 -73 16q-39 6 -37 39q10 45 61 76q45 25 96 24q78 0 113 -53q23 -36 23 -85q0 -22 -5 -48q-23 -113 -114 -211q-100 -102 -207 -102q-115 0 -152 96q-17 45 -17 104q0 44 9 97z" />
<glyph unicode="c" horiz-adv-x="425" d="M37 205q18 98 110 188q94 88 195 88q72 0 115 -37q38 -36 38 -87q0 -10 -1 -21q-6 -25 -29 -53q-20 -27 -45 -27q-20 0 -45 51q-25 53 -76 53q-106 0 -121 -94q-3 -13 -3 -27q0 -37 22 -73q29 -47 79 -47q29 0 70 28.5t62 28.5q36 0 36 -28q0 -6 -2 -13q-4 -20 -28 -45 q-109 -109 -221 -108q-84 0 -132 69q-29 51 -28 109q0 22 4 45z" />
<glyph unicode="d" horiz-adv-x="432" d="M31 164q18 111 100 211q92 115 195 114q41 0 73 -20l7 35q41 231 45 477q3 123 6 154q6 33 37 69q31 35 61 35q35 0 35 -84q-6 -350 -45 -573q-35 -209 -113 -369q-106 -231 -270 -231q-78 0 -111 51q-25 36 -25 86q1 21 5 45zM166 227q-3 -18 -3 -32q0 -70 73 -70 q84 0 143 246q-31 -35 -64 -35q-8 0 -14 2q-2 2 -8 2t-8 2t-8.5 2t-8.5 2q-6 2 -12 2q-67 0 -90 -121z" />
<glyph unicode="e" horiz-adv-x="440" d="M14 123q18 104 146 231q127 129 229 129q43 0 72 -34q22 -27 22 -61q0 -10 -2 -19q-20 -119 -286 -248q12 -4 41 -4q45 0 118 18q82 20 105 21q32 0 31 -29q0 -5 -1 -10q-12 -59 -147 -103q-104 -31 -184 -30q-146 0 -147 106q0 16 3 33zM160 195q187 98 187 127 q0 9 -9 20q-9 12 -19 12q-39 0 -94 -61q-45 -51 -65 -98z" />
<glyph unicode="f" horiz-adv-x="450" d="M-12 -117q0 61 12 129q31 170 182 566q45 113 78 210l64 201q37 129 45 166q20 70 94 86l10 -22q0 -51 -8 -93q-29 -172 -123 -426l-111 -305q-10 -31 -20 -57.5t-16.5 -39.5t-6.5 -17q-6 -20 -26 -97q-8 -31 -21 -92q-17 -96 -17 -163q0 -160 97 -160q55 0 74 98 q2 9 1 18q0 60 -67 152q-76 104 -67 135q10 51 162 125q143 72 198 72q30 0 31 -28q0 -6 -2 -13q-8 -51 -84 -88q-33 -10 -64 -23l-61 -24l44.5 -64l29.5 -43l8 -12q26 -50 26 -105q0 -20 -4 -41q-18 -98 -108 -194q-96 -102 -195 -103q-117 0 -147 142q-8 47 -8 110z" />
<glyph unicode="g" horiz-adv-x="507" d="M-55 -313q6 35 45 63q35 31 65 31h17q2 0 9 -1t11 -1t12.5 -1t10.5 -1h16q59 0 113 20q0 39 -66 64q-62 23 -62 47q0 49 130 119q-33 -8 -62 -9q-77 0 -116 62q-31 51 -32 105q0 16 3 32q18 98 115 180q98 80 198 80q98 0 158 -67q45 -50 45 -121q0 -22 -4 -45 q-25 -150 -209 -273q54 -37 54 -98q0 -14 -3 -31q-18 -98 -125 -155q-98 -49 -200 -49q-25 0 -74 16q-55 15 -49 33zM176 264q-2 -12 -2 -24q0 -33 19 -64q25 -39 67 -39q37 0 80 35q47 39 68 41q2 55 -35 92q-37 41 -92 41q-89 0 -105 -82z" />
<glyph unicode="h" horiz-adv-x="593" d="M-4 20q9 58 49 209l111 402q63 217 98 413q4 12 4 27q0 6 1 18.5t1 20.5t1 20.5t1 18.5q0 16 4 28.5t8.5 20.5t16.5 21q8 8 20.5 14t22.5 6q40 0 40 -89q0 -55 -16 -144q-25 -141 -86 -357l-67 -254q-6 -23 -13.5 -48t-10.5 -37.5t-5 -18.5q145 188 277 188q59 0 59 -46 q0 -9 -2 -19q-2 -6 -5 -22.5t-5 -22.5q-6 -31 -19 -66q-14 -43 -18 -61q-10 -43 -10 -47q-3 -18 -4 -32q0 -54 51 -54q45 0 151.5 47t120.5 47q34 0 34 -29q0 -6 -1 -12q-12 -51 -172 -125q-158 -68 -211 -68q-125 0 -125 119q0 22 4 49q2 6 6 22.5t6 22.5q2 10 8.5 32 t8.5 28q6 18 16 57l10 41q-47 -16 -159 -193q-108 -166 -172 -165q-30 0 -31 26q0 5 2 12z" />
<glyph unicode="i" horiz-adv-x="155" d="M8 59q14 70 58 195q45 133 75 182q29 45 68 45q26 0 26 -33q0 -11 -4 -26l-2 -5q-2 -5 -7 -19.5t-10 -33t-14.5 -46t-19.5 -60.5q-6 -20 -23.5 -89l-29.5 -118q-6 -25 -39 -49q-35 -23 -59 -22q-22 0 -22 43q0 15 3 36zM168 623q6 31 47 69q39 37 76 37q46 0 46 -38 q0 -7 -1 -15q-10 -41 -39 -76t-72 -35q-58 0 -58 44q0 7 1 14z" />
<glyph unicode="j" horiz-adv-x="346" d="M-154 -195q8 35 37 62q31 31 62 31q18 0 55 -54q41 -53 68 -53q59 0 129 211q45 131 71 277q2 6 2 22q0 4 1 15.5t1 17.5t1 16t1 15q0 18 2 24q6 35 35 64q29 31 60 30q44 0 43 -75q0 -34 -8 -84q-14 -82 -52 -203q-29 -94 -80 -197q-132 -270 -282 -270q-102 0 -146 131 q-3 3 -3 7.5t3 12.5zM309 627q6 39 47 73q41 39 76 39q18 0 35 -22q13 -15 13 -30q0 -35 -46 -81q-39 -35 -69 -35q-23 0 -43 17q-14 12 -14 28q-1 6 1 11z" />
<glyph unicode="k" horiz-adv-x="468" d="M0 14q8 41 39 176q20 84 61 244q57 221 64 246q25 106 37 174q8 35 14 90q4 35 8 105q2 43 6 69q2 16 2 31q2 23 35 51.5t56 28.5q20 0 30 -23q7 -20 7 -61q0 -91 -33 -281q-2 -12 -11.5 -59l-15.5 -76q-6 -27 -20.5 -82t-20.5 -82l-55 -221l-19 -78q129 145 273 207 q28 12 37 12q34 0 34 -26q0 -6 -2 -13q-8 -49 -110 -108q-104 -63 -113 -113q-2 -9 -2 -17q0 -54 66 -81l63 -18q10 -2 32.5 -8.5t33.5 -10.5q25 -8 20 -37q-6 -33 -41 -59q-35 -29 -72 -29q-70 0 -143 29q-76 31 -100 86q-102 -111 -133 -111q-28 0 -28 32q0 5 1 13z" />
<glyph unicode="l" horiz-adv-x="133" d="M12 72q6 35 15.5 83l24 118.5l24.5 119.5l41 199l14 74t10 49l39 207l43 235q4 23 39 51.5t60 28.5q10 0 18 -8q6 -6 6 -25q0 -6 -4 -47q0 -8 -2 -20.5t-4 -27.5t-4 -28q-40 -218 -160 -755q-4 -14 -8 -41t-8 -39l-19 -78q-25 -125 -41 -148q-27 -45 -63 -45 q-25 0 -25 46q-1 21 4 51z" />
<glyph unicode="m" horiz-adv-x="579" d="M-31 57q18 115 121 260q117 162 221 162q74 0 86 -121q88 94 133 95q58 0 74 -154q4 -48 4 -90q0 -63 -8 -117q-18 -92 -80 -119q-16 -8 -35 -8q-29 0 -28 55q2 6 2 21q2 12 4 29q5 49 5 90q0 75 -17 121q-29 -49 -45 -97q-6 -14 -14.5 -36.5t-8.5 -24.5q-8 -23 -16 -35 q-39 -86 -109 -86q-31 0 -31 42q0 12 2 28q2 6 7 26q0 4 3 15.5l5 19.5q8 41 12 66q11 63 11 100q0 55 -25 55q-45 0 -109 -127q-33 -76 -41 -96q-12 -37 -20 -74q-2 -4 2 -16t2 -16q-2 -18 -25 -35q-23 -18 -43 -19q-23 0 -35 31q-7 15 -6 32q-1 11 2 23z" />
<glyph unicode="n" horiz-adv-x="354" d="M-10 55q12 90 90 201q76 106 160 170q74 55 120 55q41 0 60 -65q8 -35 8 -65q0 -21 -4 -42q-8 -51 -33 -123q-22 -61 -55 -129q-41 -74 -105 -73q-37 0 -30 39q6 29 24 75q31 70 31 78q2 8 5 16.5t6 19.5t5 19q8 27 15 66q6 49 -4 49q-45 0 -123 -133q-59 -109 -74 -178 q-2 -20 -29 -39q-23 -20 -43 -21q-14 0 -20 33q-5 18 -5 34q0 7 1 13z" />
<glyph unicode="o" d="M25 143q23 117 108 222q101 117 209 116q84 0 135 -67q40 -52 41 -114q0 -18 -4 -36q-23 -111 -137 -196q-119 -86 -230 -86q-74 0 -106 45q-21 30 -21 72q0 21 5 44zM158 207q-3 -16 -3 -29q0 -65 62 -65q41 0 86 24q53 29 62 66q2 9 1 18q0 40 -30 78q-37 45 -82 45 q-71 0 -96 -137z" />
<glyph unicode="p" horiz-adv-x="401" d="M-18 -143q2 115 18 198q22 132 98 264q102 160 221 160q74 0 113 -78q28 -53 28 -109q0 -19 -3 -38q-18 -94 -105 -180q-94 -88 -182 -88q-18 0 -37 6v-41q0 -10 4 -92q1 -13 1 -28q0 -9 -0.5 -25t-0.5 -23q0 -27 -4 -55q-2 -27 -43 -60q-37 -31 -63 -30q-22 0 -31 24 q-15 52 -15 154q0 20 1 41zM152 150q33 -49 71 -50q72 0 90 93q2 10 2 20q0 32 -14 74q-25 59 -59 59q-49 1 -90 -196z" />
<glyph unicode="q" horiz-adv-x="425" d="M31 182q18 111 125 205q109 96 217 96q109 0 109 -153q0 -49 -11 -113q-14 -72 -31 -127l-65 -211q-2 -8 -8.5 -27.5t-8.5 -29.5t-26 -82q-14 -29 -47 -55q-35 -29 -62 -29q-28 0 -28 37q0 13 4 33q4 29 10 45q4 12 20 69q41 123 66 209q27 92 35 146q8 43 8 73 q0 78 -49 78q-47 0 -82 -37q-37 -37 -43 -84q-4 -23 -4 -41q0 -94 98 -94q18 0 26.5 -7t6.5 -24q-10 -41 -55 -59q-31 -14 -78 -14q-82 0 -115 59q-18 38 -18 84q1 26 6 53z" />
<glyph unicode="r" horiz-adv-x="438" d="M-10 18q2 4 5 21.5t9 40t12 47.5q25 94 64 225q35 121 84 121q18 0 24 -76q106 82 203 82q70 0 111 -47q35 -40 35 -88q0 -13 -2 -27q-6 -31 -43 -61q-35 -29 -66 -29q-18 0 -49 56q-31 57 -76 57q-78 0 -121 -94q-8 -20 -14 -43t-12 -43l-29 -86q-37 -92 -109 -92 q-28 0 -27 25q0 5 1 11z" />
<glyph unicode="s" horiz-adv-x="419" d="M33 76q33 29 57 35q29 4 49 4h60q10 0 28.5 -6.5t28.5 -6.5q6 0 8 2q6 47 -84 101q-85 51 -85 87q0 4 1 7q12 68 137 129q117 53 187 53q27 0 74 -20q47 -19 47 -43v-2q-2 -16 -29 -37q-25 -18 -45 -19h-25q-4 0 -15 1t-17 1q-25 2 -56 3q-55 0 -98 -21l53 -37l56 -37 q43 -36 43 -90q0 -13 -2 -26q-14 -86 -111 -134q-88 -39 -176 -38q-23 0 -72 14q-49 12 -49 25q0 24 35 55z" />
<glyph unicode="t" horiz-adv-x="325" d="M45 385q10 59 158 84l49 227q31 147 47 242q4 25 39 51q37 27 57 27q28 0 28 -53q0 -9 -1 -19q-4 -18 -8 -57q-4 -18 -39 -187q-6 -29 -51 -219h8q2 0 5 1t7 1h21q27 0 75 -14q55 -12 52 -27q-6 -29 -37 -55q-31 -25 -62 -25q-39 0 -100 3q-6 -23 -12.5 -44.5 t-10.5 -44.5l-20 -90q-33 -133 -53 -166q-29 -41 -68 -40q-10 0 -12 40q-6 47 -4 60l63 280q-23 -2 -57 -4q-8 0 -24.5 -1t-22.5 -1q-31 0 -27 31z" />
<glyph unicode="u" horiz-adv-x="540" d="M29 172q8 51 82 176q82 131 129 131q33 0 26 -35q-8 -29 -51 -102q-25 -43 -35 -68q-14 -37 -16 -49t-2 -24q0 -25 8 -45q16 -41 47 -41q53 0 105 131q61 150 114 178q16 12 39 12q27 0 35 -26q0 -2 2 -13.5t6 -39l8 -54.5q2 -6 9.5 -35.5t11.5 -48.5l28 -106l-4 -13 q-6 -29 -43 -59q-39 -33 -65 -33q-35 0 -78 131q-127 -158 -248 -157q-68 0 -98 61q-15 39 -15 81q0 24 5 48z" />
<glyph unicode="v" horiz-adv-x="368" d="M53 426q0 8 8 20l17 17l18 12q10 6 21 6q76 0 116 -268q211 248 269 248q36 0 35 -30q0 -21 -29 -54l-88 -101l-49 -59q-59 -74 -117 -170q-16 -27 -49 -47q-29 -20 -53 -20q-27 0 -33 20q-8 29 -10.5 45t-6.5 61q-3 46 -6 74q-4 33 -4 35q-8 53 -37 164q-5 13 -5 27 q0 10 3 20z" />
<glyph unicode="w" horiz-adv-x="641" d="M27 63q-2 19 -2 40q0 40 8 90q12 61 49 167q51 127 94 127q31 0 25 -34q0 -4 -11 -47q-6 -28 -18 -68q-4 -16 -16 -68q-8 -37 -11 -49q-6 -39 -6 -65q0 -52 25 -52l12 17q123 166 186 166q29 0 48 -68q23 -66 59 -65q92 0 131 231q4 31 39 64q34 31 68 30q29 0 29 -48 q0 -23 -7 -58q-23 -123 -119 -232q-111 -123 -225 -123q-74 0 -113 76q-100 -111 -176 -110q-57 -1 -69 79z" />
<glyph unicode="x" horiz-adv-x="438" d="M8 80q61 39 76 51q39 33 88 82q-73 122 -73 188q0 10 1 19q2 20 27 41q20 20 40.5 20t45.5 -49q4 -6 16.5 -27.5l18.5 -31.5l35 -56q174 162 227 162q35 0 29 -37q-10 -37 -52 -65l-84 -68l-71 -63q101 -138 101 -184q0 -4 -1 -7q-8 -31 -36.5 -53t-57.5 -22 q-18 0 -123 157q-162 -147 -223 -147q-14 0 -31 10q-13 8 -13 18q0 48 60 62z" />
<glyph unicode="y" horiz-adv-x="473" d="M47 283q25 147 96 190q18 12 33 12q28 0 25 -30q-4 -14 -15 -31q-6 -10 -16 -57q-16 -89 -16 -148q0 -113 59 -113q27 0 88 105l37 65l37 68q16 27 45 49q33 27 53 27q47 0 53 -111q2 -18 2 -36q0 -57 -14 -119q-35 -199 -137 -445q-14 -33 -41 -53q-31 -25 -62 -25 q-27 0 -26 34q0 9 2 20q10 61 59 209q45 127 58 204q4 8 4 19q2 6 4 26q-131 -162 -228 -161q-113 0 -113 168q0 57 13 133z" />
<glyph unicode="z" horiz-adv-x="448" d="M0 379q6 29 43 45q33 16 61 16q33 0 58 4q14 2 45 8.5l41 8.5l86 14q25 4 59 4q53 0 92 -22q40 -24 40 -66q0 -6 -1 -12q-18 -98 -192 -225q128 0 127 -87q0 -13 -2 -28q-18 -111 -195 -246q-37 -29 -65 -29q-39 0 -29 41q3 25 68 86q66 63 71 95q6 33 -57 32 q-45 0 -109 -20q-74 -23 -82 -23q-35 0 -28 37q8 53 180 172t174 146q2 14 -10.5 20t-36.5 6q-49 0 -133 -14q-74 -10 -78 -10q-45 -4 -55 -4q-41 0 -58.5 12t-13.5 39z" />
<glyph unicode="{" horiz-adv-x="616" d="M90 502q10 49 78 90q39 18 119 29q84 10 121 24q6 12 6 19q0 10 -27 38l-29 43q-18 29 -20 33q-25 57 -12 127q25 137 161 238q129 94 275 94q27 0 37 -10t6 -27q-6 -16 -27 -37q-18 -18 -41 -22q-2 0 -10 -1t-14 -1q-4 0 -33 -4q-82 -12 -137 -52q-70 -49 -82 -118 q-16 -74 45 -142q57 -63 49 -112q-8 -51 -49 -99q51 -12 74.5 -28.5t19.5 -38.5q-10 -53 -119 -148q-111 -94 -116 -139q-14 -72 51 -111q35 -16 127 -38q41 -10 59.5 -21.5t15.5 -26.5q-6 -33 -43 -59q-39 -29 -67 -29q-168 0 -243 56.5t-54 169.5q20 117 139 209l35 26 l45 37q-23 8 -45 8q-49 0 -104 -10q-14 -2 -60 -8q-33 -4 -43 -4q-25 0 -55 12q-35 13 -33 33z" />
<glyph unicode="|" horiz-adv-x="155" d="M16 -6q-2 31 11 96q4 23 13 71l13 70q16 82 39 185l43 202q15 80 25 123l17 94.5t20 102.5l39 219q4 23 38.5 51.5t59.5 28.5q12 0 18 -8t6 -27q0 -6 -4 -47q-2 -10 -6 -35.5l-6 -38.5q-4 -18 -17.5 -93l-23.5 -128l-74 -346q-100 -473 -118 -498q-25 -33 -72 -45z" />
<glyph unicode="}" horiz-adv-x="610" d="M18 2q4 20 23 39q20 20 41 22l55 9q82 10 144 49q66 45 81 119q14 74 -49 141q-61 63 -51 115q10 47 49 96q-51 12 -74.5 28.5t-19.5 38.5q8 45 123 148q111 98 121 137q2 12 -4 37q-12 61 -82 88q-10 6 -35 10q-10 2 -38 9.5t-46 11.5q-61 12 -55 43t43 61q39 33 67 33 q135 0 217 -47q100 -59 80 -184q-18 -119 -139 -209q-18 -12 -35 -25q-10 -8 -21.5 -18.5l-23.5 -20.5q18 -6 45 -6q37 0 105 12q72 12 102 13q20 0 59 -17q35 -14 31 -33q-8 -49 -82 -88q-53 -25 -119 -32q-82 -8 -116 -23q-6 -6 -6 -8q-4 -20 24 -51q35 -39 51 -74 q25 -57 13 -127q-25 -139 -162 -238q-133 -88 -275 -88q-23 0 -33 7.5t-8 21.5z" />
<glyph unicode="~" horiz-adv-x="471" d="M29 127v1q3 2 6 9q2 4 7 12.5t7 14.5q82 125 176 125q41 0 76 -31q41 -37 64 -45q68 94 116 94q39 0 33 -37q-12 -61 -82 -125q-76 -66 -133 -65q-47 0 -92 47q-43 49 -60 49v-4l-20 -25q-10 -12 -18 -24q-29 -29 -54 -29q-32 0 -26 33z" />
<glyph horiz-adv-x="204" d="M-4 -70q0 4 12 27q29 51 37 63q6 12 41 66q16 25 18 27q31 35 56 34q35 0 24 -47q-8 -51 -57 -120q-57 -82 -102 -82q-35 -1 -29 32z" />
<glyph unicode="&#x201a;" horiz-adv-x="204" d="M-4 -70q0 4 12 27q29 51 37 63q6 12 41 66q16 25 18 27q31 35 56 34q35 0 24 -47q-8 -51 -57 -120q-57 -82 -102 -82q-35 -1 -29 32z" />
<glyph horiz-adv-x="323" d="M2 -84q3 12 25 43q20 31 26 47q2 6 6 27q2 8 5.5 17t5.5 20q6 20 26 36q23 18 39.5 18.5t28.5 -34.5q12 -31 6 -51l18 41q8 20 39 47q25 23 49 23q14 0 24.5 -29t6.5 -47q-10 -55 -69 -140q-66 -100 -111 -100q-39 0 -29 39l1 2q1 2 3 5t4.5 8.5t4.5 11.5q4 8 10 26.5 t18 42.5q-55 -90 -108 -90q-35 0 -29 37z" />
<glyph unicode="&#x201e;" horiz-adv-x="323" d="M2 -84q3 12 25 43q20 31 26 47q2 6 6 27q2 8 5.5 17t5.5 20q6 20 26 36q23 18 39.5 18.5t28.5 -34.5q12 -31 6 -51l18 41q8 20 39 47q25 23 49 23q14 0 24.5 -29t6.5 -47q-10 -55 -69 -140q-66 -100 -111 -100q-39 0 -29 39l1 2q1 2 3 5t4.5 8.5t4.5 11.5q4 8 10 26.5 t18 42.5q-55 -90 -108 -90q-35 0 -29 37z" />
<glyph unicode="&#x85;" horiz-adv-x="657" d="M12 57q10 47 47 88q39 43 82 43q31 0 62 -18q34 -22 30 -49q-8 -45 -63 -90q-57 -45 -100 -45q-70 -1 -58 71zM231 61q8 49 62 103q51 51 100 51q33 0 55.5 -22.5t16.5 -57.5q-12 -55 -64 -94q-53 -41 -106 -41q-35 0 -51.5 15t-12.5 46zM455 66q6 41 47 86t82 45 q31 0 61 -19q35 -23 29 -49q-10 -51 -62 -92q-55 -43 -100 -43q-73 0 -57 72z" />
<glyph unicode="&#x2026;" horiz-adv-x="657" d="M12 57q10 47 47 88q39 43 82 43q31 0 62 -18q34 -22 30 -49q-8 -45 -63 -90q-57 -45 -100 -45q-70 -1 -58 71zM231 61q8 49 62 103q51 51 100 51q33 0 55.5 -22.5t16.5 -57.5q-12 -55 -64 -94q-53 -41 -106 -41q-35 0 -51.5 15t-12.5 46zM455 66q6 41 47 86t82 45 q31 0 61 -19q35 -23 29 -49q-10 -51 -62 -92q-55 -43 -100 -43q-73 0 -57 72z" />
<glyph horiz-adv-x="397" d="M256 1350q8 51 98 118q92 70 144 70q49 0 84 -45q35 -43 26 -90q-6 -31 -39 -60q-33 -31 -59 -30q-31 0 -45 53t-33 53q-23 0 -74 -51q-49 -49 -75 -49q-29 0 -27 31z" />
<glyph unicode="&#x2c6;" horiz-adv-x="397" d="M256 1350q8 51 98 118q92 70 144 70q49 0 84 -45q35 -43 26 -90q-6 -31 -39 -60q-33 -31 -59 -30q-31 0 -45 53t-33 53q-23 0 -74 -51q-49 -49 -75 -49q-29 0 -27 31z" />
<glyph horiz-adv-x="1073" d="M4 16l6 19q4 12 8 18l84 131l55.5 80l53.5 76l199 283l112 163l160 230l23.5 31.5l27.5 35.5l70 91q51 57 88 57q47 0 37 -41l-1 -3q-1 -3 -1 -5t-3 -6.5t-3 -6.5q-71 -117 -191 -282l-100 -139l-101 -140l-149 -219l-115 -164l-49 -78q-33 -49 -76 -106 q-47 -59 -100 -59q-41 -1 -35 34zM184 948q16 80 99 162q78 74 161 109q31 12 52 12q22 0 43 -31q27 18 45 19q25 0 43 -54q18 -55 12 -84q-18 -102 -129 -188t-213 -86q-27 0 -53 10q-23 8 -39 29q-12 16 -21 45q-6 24 0 57zM297 137q12 76 90 154q82 84 154 84 q20 0 47 -21q39 37 78 37q100 -39 82 -147q-4 -16 -19 -47q80 133 174 163q43 70 105 70q12 0 39 -16q94 -53 71 -170q-18 -100 -110 -181q-94 -82 -191 -81q-33 0 -55 8q-27 10 -41 24q-16 16 -23 41q-8 29 -2 56q6 23 9 28q4 10 14 31q-14 -25 -53 -68q-33 -35 -76 -61 q-86 -55 -164 -55q-68 0 -104.5 40.5t-24.5 110.5zM321.5 1003.5q-12.5 -67.5 47.5 -67.5q27 0 41 4q20 6 39 18q12 8 28 29q10 14 15 37q4 18 -7 59q-6 40 -6 50q-145 -62 -157.5 -129.5zM430 193q-6 -33 14 -56q18 -20 52 -20q35 0 65 18q31 16 37 49q6 29 -31 84 q-14 -6 -22 -6q-2 0 -7.5 1t-9.5 1t-10 1t-8 1q-68 1 -80 -73zM831 170q-12 -59 58 -59q68 0 80 73q10 53 -41 103q-8 -6 -15.5 -12.5t-15.5 -12.5q-20 -16 -31 -26q-14 -14 -22.5 -28.5t-12.5 -37.5z" />
<glyph unicode="&#x2030;" horiz-adv-x="1073" d="M4 16l6 19q4 12 8 18l84 131l55.5 80l53.5 76l199 283l112 163l160 230l23.5 31.5l27.5 35.5l70 91q51 57 88 57q47 0 37 -41l-1 -3q-1 -3 -1 -5t-3 -6.5t-3 -6.5q-71 -117 -191 -282l-100 -139l-101 -140l-149 -219l-115 -164l-49 -78q-33 -49 -76 -106 q-47 -59 -100 -59q-41 -1 -35 34zM184 948q16 80 99 162q78 74 161 109q31 12 52 12q22 0 43 -31q27 18 45 19q25 0 43 -54q18 -55 12 -84q-18 -102 -129 -188t-213 -86q-27 0 -53 10q-23 8 -39 29q-12 16 -21 45q-6 24 0 57zM297 137q12 76 90 154q82 84 154 84 q20 0 47 -21q39 37 78 37q100 -39 82 -147q-4 -16 -19 -47q80 133 174 163q43 70 105 70q12 0 39 -16q94 -53 71 -170q-18 -100 -110 -181q-94 -82 -191 -81q-33 0 -55 8q-27 10 -41 24q-16 16 -23 41q-8 29 -2 56q6 23 9 28q4 10 14 31q-14 -25 -53 -68q-33 -35 -76 -61 q-86 -55 -164 -55q-68 0 -104.5 40.5t-24.5 110.5zM321.5 1003.5q-12.5 -67.5 47.5 -67.5q27 0 41 4q20 6 39 18q12 8 28 29q10 14 15 37q4 18 -7 59q-6 40 -6 50q-145 -62 -157.5 -129.5zM430 193q-6 -33 14 -56q18 -20 52 -20q35 0 65 18q31 16 37 49q6 29 -31 84 q-14 -6 -22 -6q-2 0 -7.5 1t-9.5 1t-10 1t-8 1q-68 1 -80 -73zM831 170q-12 -59 58 -59q68 0 80 73q10 53 -41 103q-8 -6 -15.5 -12.5t-15.5 -12.5q-20 -16 -31 -26q-14 -14 -22.5 -28.5t-12.5 -37.5z" />
<glyph horiz-adv-x="819" d="M-4 244q6 43 43 86q37 49 76 51l16 -23q-28 -65 -31 -73q-2 -11 -2 -22q0 -82 129 -128q104 -39 228 -39q264 0 288 137q2 13 3 27q0 97 -123 219l-131 121l-132 123q-122 127 -121 235q0 17 3 33q14 84 100 150q70 53 168 76q82 20 172 20q156 0 213 -20q22 -7 22 -25 q0 -4 -2 -10q-6 -33 -38 -60q-35 -29 -68 -28q-4 0 -18.5 1t-24.5 1q-14 2 -29.5 2h-29.5q-10 0 -31 2t-29 2q-10 0 -23.5 1t-17.5 1q-213 0 -221 -62q-2 -11 -2 -21q0 -87 125 -210l127 -121l131 -121q116 -129 116 -243q0 -19 -3 -37q-4 -33 -25 -72q-61 -121 -195 -184 q-119 -51 -256 -51q-68 0 -129 12q-104 18 -190 80q-91 64 -91 142q0 14 3 28zM850 1497q0 -2 -3.5 -8t-5.5 -10q-35 -57 -104 -109q-76 -57 -129 -57q-51 0 -84 43q-35 43 -27 90q6 29 39 59q37 33 62 33q27 0 43 -53q18 -53 30 -53q23 0 74 51q49 51 78 51q33 0 27 -37z " />
<glyph unicode="&#x160;" horiz-adv-x="819" d="M-4 244q6 43 43 86q37 49 76 51l16 -23q-28 -65 -31 -73q-2 -11 -2 -22q0 -82 129 -128q104 -39 228 -39q264 0 288 137q2 13 3 27q0 97 -123 219l-131 121l-132 123q-122 127 -121 235q0 17 3 33q14 84 100 150q70 53 168 76q82 20 172 20q156 0 213 -20q22 -7 22 -25 q0 -4 -2 -10q-6 -33 -38 -60q-35 -29 -68 -28q-4 0 -18.5 1t-24.5 1q-14 2 -29.5 2h-29.5q-10 0 -31 2t-29 2q-10 0 -23.5 1t-17.5 1q-213 0 -221 -62q-2 -11 -2 -21q0 -87 125 -210l127 -121l131 -121q116 -129 116 -243q0 -19 -3 -37q-4 -33 -25 -72q-61 -121 -195 -184 q-119 -51 -256 -51q-68 0 -129 12q-104 18 -190 80q-91 64 -91 142q0 14 3 28zM850 1497q0 -2 -3.5 -8t-5.5 -10q-35 -57 -104 -109q-76 -57 -129 -57q-51 0 -84 43q-35 43 -27 90q6 29 39 59q37 33 62 33q27 0 43 -53q18 -53 30 -53q23 0 74 51q49 51 78 51q33 0 27 -37z " />
<glyph horiz-adv-x="370" d="M39 207q6 41 82 84q2 2 14 7t23 11l75 37q41 20 54 29q10 6 29.5 23.5t25.5 21.5q31 25 51 24q33 0 27 -34q-12 -72 -180 -160q164 -90 153 -150q-6 -29 -41 -57.5t-63 -28.5q-14 0 -23 6q-27 16 -45 31q-16 10 -36.5 26.5l-45.5 37.5q-55 43 -78.5 64.5t-21.5 27.5z" />
<glyph unicode="&#x2039;" horiz-adv-x="370" d="M39 207q6 41 82 84q2 2 14 7t23 11l75 37q41 20 54 29q10 6 29.5 23.5t25.5 21.5q31 25 51 24q33 0 27 -34q-12 -72 -180 -160q164 -90 153 -150q-6 -29 -41 -57.5t-63 -28.5q-14 0 -23 6q-27 16 -45 31q-16 10 -36.5 26.5l-45.5 37.5q-55 43 -78.5 64.5t-21.5 27.5z" />
<glyph horiz-adv-x="1579" d="M72 397q8 49 43 158q29 86 75 182q29 61 84 74l25 -18q-2 -10 -16 -45q-4 -12 -12.5 -33t-18.5 -49q-45 -113 -62 -201q-25 -137 21 -242q51 -119 184 -119q150 0 279 127q139 137 180 357q31 182 -25 327q-70 174 -237 175q-84 0 -182 -58q-41 -23 -142 -106 q-74 -57 -94 -58q-41 0 -35 37q6 22 31 49q102 115 229 191q150 92 273 92q242 0 315 -270q96 113 219 186q137 80 262 80q90 0 162 -41q86 -49 70 -133q-10 -45 -47 -90q-47 -59 -86 -60l-17 21q0 2 2 6l4 8q2 6 11 23l6 12t4 10q2 6 2 17q10 51 -32 77.5t-138 26.5 q-156 0 -287 -127q-90 -84 -106 -174q-16 -88 61 -119q43 -18 154 -18q45 0 35 -41q-8 -49 -72 -80l-53 -21l-56 -20q-178 -76 -202 -211q-14 -90 60.5 -135t242.5 -45q78 0 241 35q170 35 242 34q41 0 35 -38q-12 -51 -86 -89q-76 -33 -262 -59l-154 -14q-68 -6 -119 -6 q-121 0 -213 36q-117 49 -135 146q-201 -182 -399 -182q-160 0 -232 129q-59 114 -32 286z" />
<glyph unicode="&#x152;" horiz-adv-x="1579" d="M72 397q8 49 43 158q29 86 75 182q29 61 84 74l25 -18q-2 -10 -16 -45q-4 -12 -12.5 -33t-18.5 -49q-45 -113 -62 -201q-25 -137 21 -242q51 -119 184 -119q150 0 279 127q139 137 180 357q31 182 -25 327q-70 174 -237 175q-84 0 -182 -58q-41 -23 -142 -106 q-74 -57 -94 -58q-41 0 -35 37q6 22 31 49q102 115 229 191q150 92 273 92q242 0 315 -270q96 113 219 186q137 80 262 80q90 0 162 -41q86 -49 70 -133q-10 -45 -47 -90q-47 -59 -86 -60l-17 21q0 2 2 6l4 8q2 6 11 23l6 12t4 10q2 6 2 17q10 51 -32 77.5t-138 26.5 q-156 0 -287 -127q-90 -84 -106 -174q-16 -88 61 -119q43 -18 154 -18q45 0 35 -41q-8 -49 -72 -80l-53 -21l-56 -20q-178 -76 -202 -211q-14 -90 60.5 -135t242.5 -45q78 0 241 35q170 35 242 34q41 0 35 -38q-12 -51 -86 -89q-76 -33 -262 -59l-154 -14q-68 -6 -119 -6 q-121 0 -213 36q-117 49 -135 146q-201 -182 -399 -182q-160 0 -232 129q-59 114 -32 286z" />
<glyph horiz-adv-x="204" d="M217 1186q6 47 37 47q27 0 45 -35q4 -10 10 -29l17 -63l9 -37.5t7 -26.5q4 -14 4 -28q-6 -33 -45 -33q-47 0 -72 82q-21 77 -12 123z" />
<glyph unicode="&#x2018;" horiz-adv-x="204" d="M217 1186q6 47 37 47q27 0 45 -35q4 -10 10 -29l17 -63l9 -37.5t7 -26.5q4 -14 4 -28q-6 -33 -45 -33q-47 0 -72 82q-21 77 -12 123z" />
<glyph horiz-adv-x="204" d="M186 1014q0 6 52 92q12 23 38 63q14 18 19 29q31 35 57 35q31 0 25 -47q-12 -51 -60 -123q-57 -82 -102 -82q-35 0 -29 33z" />
<glyph unicode="&#x2019;" horiz-adv-x="204" d="M186 1014q0 6 52 92q12 23 38 63q14 18 19 29q31 35 57 35q31 0 25 -47q-12 -51 -60 -123q-57 -82 -102 -82q-35 0 -29 33z" />
<glyph horiz-adv-x="323" d="M221 1161q2 18 23 47q18 29 32 29q18 0 39 -25q18 -18 23 -45l4 -43v2q2 12 27 52q23 35 39 34q18 0 30 -18q14 -20 17 -37q-4 -20 -4 -31q0 -8 -5 -28q0 -37 13 -58q12 -29 12 -39q-8 -37 -45 -36q-57 0 -78 88q8 -90 4 -115q-4 -18 -41 -18q-43 0 -73 100 q-25 92 -17 141z" />
<glyph unicode="&#x201c;" horiz-adv-x="323" d="M221 1161q2 18 23 47q18 29 32 29q18 0 39 -25q18 -18 23 -45l4 -43v2q2 12 27 52q23 35 39 34q18 0 30 -18q14 -20 17 -37q-4 -20 -4 -31q0 -8 -5 -28q0 -37 13 -58q12 -29 12 -39q-8 -37 -45 -36q-57 0 -78 88q8 -90 4 -115q-4 -18 -41 -18q-43 0 -73 100 q-25 92 -17 141z" />
<glyph horiz-adv-x="323" d="M195 1001q0 10 22 43q25 31 27 50l8 24l10 39q4 14 27 37q18 18 37 18q16 0 28 -34q14 -35 8 -54l21 43q8 23 37 45q28 25 49 25q12 0 23 -29q12 -29 6 -47q-10 -53 -70 -141q-66 -100 -109 -100q-37 0 -28 38q0 4 10 29l31 66q-51 -88 -109 -88q-38 -1 -28 36z" />
<glyph unicode="&#x201d;" horiz-adv-x="323" d="M195 1001q0 10 22 43q25 31 27 50l8 24l10 39q4 14 27 37q18 18 37 18q16 0 28 -34q14 -35 8 -54l21 43q8 23 37 45q28 25 49 25q12 0 23 -29q12 -29 6 -47q-10 -53 -70 -141q-66 -100 -109 -100q-37 0 -28 38q0 4 10 29l31 66q-51 -88 -109 -88q-38 -1 -28 36z" />
<glyph d="M246 1376q0 3 6 13q6 8 16 24q80 125 176 125q41 0 76 -29q43 -39 62 -47q70 94 116 94q39 0 33 -36q-12 -61 -82 -125q-76 -66 -133 -66q-49 0 -90 47q-43 49 -61 49v-4l-21 -24l-20 -25q-25 -29 -54 -29q-30 0 -24 33z" />
<glyph unicode="&#x2dc;" d="M246 1376q0 3 6 13q6 8 16 24q80 125 176 125q41 0 76 -29q43 -39 62 -47q70 94 116 94q39 0 33 -36q-12 -61 -82 -125q-76 -66 -133 -66q-49 0 -90 47q-43 49 -61 49v-4l-21 -24l-20 -25q-25 -29 -54 -29q-30 0 -24 33z" />
<glyph horiz-adv-x="765" d="M207 1130q6 35 135 70q109 31 162 31q16 0 45 -14q31 -16 31 -29q45 29 88 29q59 0 80 -60q41 27 83 27q70 0 97 -62q25 -51 10 -123q-8 -37 -14 -55q-6 -16 -19 -41q-14 -25 -43 -43q-33 -23 -51 -22q-33 0 -20 82q20 129 -39 129v-5q-3 -6 0 -6q4 0 4 -6l-15 -47 q-10 -29 -44.5 -57.5t-63.5 -28.5q-34 0 -31 37q0 6 2 22.5t2 22.5l6 45q6 72 -16 72q-6 0 -6 -11q0 -2 -1 -9t-1 -11q0 -16 -2 -20l-6 -33q-4 -16 -5 -19q0 -4 -2 -8t-2 -6q-25 -147 -86 -147q-18 0 -24 59q-6 53 -2 78q16 84 53 143q-18 -10 -76 -8l-18 -158l-4 -30.5 t-3 -20.5t-1 -8q-6 -23 -37 -47.5t-56 -24.5q-29 0 -26 45q0 10 2 23q0 4 2 19.5t4 25.5q2 18 16 82q4 25 10.5 49t10.5 43q-61 -10 -76 -10t-37 12q-20 12 -16 24z" />
<glyph unicode="&#x2122;" horiz-adv-x="765" d="M207 1130q6 35 135 70q109 31 162 31q16 0 45 -14q31 -16 31 -29q45 29 88 29q59 0 80 -60q41 27 83 27q70 0 97 -62q25 -51 10 -123q-8 -37 -14 -55q-6 -16 -19 -41q-14 -25 -43 -43q-33 -23 -51 -22q-33 0 -20 82q20 129 -39 129v-5q-3 -6 0 -6q4 0 4 -6l-15 -47 q-10 -29 -44.5 -57.5t-63.5 -28.5q-34 0 -31 37q0 6 2 22.5t2 22.5l6 45q6 72 -16 72q-6 0 -6 -11q0 -2 -1 -9t-1 -11q0 -16 -2 -20l-6 -33q-4 -16 -5 -19q0 -4 -2 -8t-2 -6q-25 -147 -86 -147q-18 0 -24 59q-6 53 -2 78q16 84 53 143q-18 -10 -76 -8l-18 -158l-4 -30.5 t-3 -20.5t-1 -8q-6 -23 -37 -47.5t-56 -24.5q-29 0 -26 45q0 10 2 23q0 4 2 19.5t4 25.5q2 18 16 82q4 25 10.5 49t10.5 43q-61 -10 -76 -10t-37 12q-20 12 -16 24z" />
<glyph horiz-adv-x="419" d="M33 76q33 29 57 35q29 4 49 4h60q10 0 28.5 -6.5t28.5 -6.5q6 0 8 2q6 47 -84 101q-85 51 -85 87q0 4 1 7q12 68 137 129q117 53 187 53q27 0 74 -20q47 -19 47 -43v-2q-2 -16 -29 -37q-25 -18 -45 -19h-25q-4 0 -15 1t-17 1q-25 2 -56 3q-55 0 -98 -21l53 -37l56 -37 q43 -36 43 -90q0 -13 -2 -26q-14 -86 -111 -134q-88 -39 -176 -38q-23 0 -72 14q-49 12 -49 25q0 24 35 55zM559 762q0 -2 -3.5 -8t-5.5 -10q-35 -57 -104 -109q-76 -57 -129 -57q-51 0 -84 43q-35 43 -27 90q6 29 39 59q37 33 62 33q27 0 43 -53q18 -53 30 -53q23 0 74 51 q49 51 78 51q33 0 27 -37z" />
<glyph unicode="&#x161;" horiz-adv-x="419" d="M33 76q33 29 57 35q29 4 49 4h60q10 0 28.5 -6.5t28.5 -6.5q6 0 8 2q6 47 -84 101q-85 51 -85 87q0 4 1 7q12 68 137 129q117 53 187 53q27 0 74 -20q47 -19 47 -43v-2q-2 -16 -29 -37q-25 -18 -45 -19h-25q-4 0 -15 1t-17 1q-25 2 -56 3q-55 0 -98 -21l53 -37l56 -37 q43 -36 43 -90q0 -13 -2 -26q-14 -86 -111 -134q-88 -39 -176 -38q-23 0 -72 14q-49 12 -49 25q0 24 35 55zM559 762q0 -2 -3.5 -8t-5.5 -10q-35 -57 -104 -109q-76 -57 -129 -57q-51 0 -84 43q-35 43 -27 90q6 29 39 59q37 33 62 33q27 0 43 -53q18 -53 30 -53q23 0 74 51 q49 51 78 51q33 0 27 -37z" />
<glyph horiz-adv-x="360" d="M53 57q6 37 176 146q-160 137 -153 176q4 12 8 20.5t16 20.5q8 8 21 14q8 4 24 4q12 0 140 -90q18 -10 37 -22q10 -6 18 -12.5l16 -12.5q53 -37 47 -55q-6 -41 -141 -133q-141 -94 -178 -95q-39 0 -31 39z" />
<glyph unicode="&#x203a;" horiz-adv-x="360" d="M53 57q6 37 176 146q-160 137 -153 176q4 12 8 20.5t16 20.5q8 8 21 14q8 4 24 4q12 0 140 -90q18 -10 37 -22q10 -6 18 -12.5l16 -12.5q53 -37 47 -55q-6 -41 -141 -133q-141 -94 -178 -95q-39 0 -31 39z" />
<glyph horiz-adv-x="757" d="M25 143q23 117 108 222q101 117 209 116q113 0 160 -114q126 117 215 116q43 0 71 -34q29 -33 21 -80q-12 -76 -123 -146l-88 -49l-86 -51q12 -6 51 -6q45 0 119 18q80 20 104 21q37 0 31 -39q-8 -59 -145 -103q-106 -31 -187 -30q-113 0 -139 63q-102 -66 -199 -65 q-70 0 -104 45q-34 42 -18 116zM158 207q-14 -94 59 -94q41 0 86 24q51 25 62 66q8 49 -29 96q-37 45 -82 45q-71 0 -96 -137zM487 195q180 92 187 122q2 10 -8 25q-9 12 -19 12q-41 0 -94 -59q-29 -37 -39 -53q-21 -33 -27 -47z" />
<glyph unicode="&#x153;" horiz-adv-x="757" d="M25 143q23 117 108 222q101 117 209 116q113 0 160 -114q126 117 215 116q43 0 71 -34q29 -33 21 -80q-12 -76 -123 -146l-88 -49l-86 -51q12 -6 51 -6q45 0 119 18q80 20 104 21q37 0 31 -39q-8 -59 -145 -103q-106 -31 -187 -30q-113 0 -139 63q-102 -66 -199 -65 q-70 0 -104 45q-34 42 -18 116zM158 207q-14 -94 59 -94q41 0 86 24q51 25 62 66q8 49 -29 96q-37 45 -82 45q-71 0 -96 -137zM487 195q180 92 187 122q2 10 -8 25q-9 12 -19 12q-41 0 -94 -59q-29 -37 -39 -53q-21 -33 -27 -47z" />
<glyph horiz-adv-x="786" d="M143 883q28 151 86 288q27 59 93 70l24 -16l-4 -19l-16 -40l-15 -44q-33 -98 -45 -170q-11 -66 -11 -122t11 -101q31 -125 146 -125q178 0 399 381l43 78q49 76 109 76q34 0 34 -32q0 -6 -2 -13l-10 -39q-4 -14 -16 -51q-41 -115 -78 -203l-127 -309l-125 -297l-47 -136 q-39 -80 -107 -79q-39 0 -32 38q10 55 24 93l53 147q14 39 56 131l127 295q-199 -211 -367 -211q-150 0 -199 137q-17 52 -17 126q0 65 13 147zM499 1440q6 37 43 63q45 31 74 31q55 0 45 -61q-8 -37 -51 -62q-45 -29 -80 -29q-8 0 -20.5 23t-10.5 35zM684 1421 q6 39 38.5 78t69.5 39q29 0 45 -16q18 -18 17 -45q-10 -41 -47 -66q-37 -29 -78 -29q-27 0 -37 9.5t-8 29.5z" />
<glyph unicode="&#x178;" horiz-adv-x="786" d="M143 883q28 151 86 288q27 59 93 70l24 -16l-4 -19l-16 -40l-15 -44q-33 -98 -45 -170q-11 -66 -11 -122t11 -101q31 -125 146 -125q178 0 399 381l43 78q49 76 109 76q34 0 34 -32q0 -6 -2 -13l-10 -39q-4 -14 -16 -51q-41 -115 -78 -203l-127 -309l-125 -297l-47 -136 q-39 -80 -107 -79q-39 0 -32 38q10 55 24 93l53 147q14 39 56 131l127 295q-199 -211 -367 -211q-150 0 -199 137q-17 52 -17 126q0 65 13 147zM499 1440q6 37 43 63q45 31 74 31q55 0 45 -61q-8 -37 -51 -62q-45 -29 -80 -29q-8 0 -20.5 23t-10.5 35zM684 1421 q6 39 38.5 78t69.5 39q29 0 45 -16q18 -18 17 -45q-10 -41 -47 -66q-37 -29 -78 -29q-27 0 -37 9.5t-8 29.5z" />
<glyph unicode="&#xa1;" horiz-adv-x="323" d="M2 23q2 10 23 88q8 29 43 147l57 191l80 264l11 42.5t9 39.5q4 18 10.5 37.5t12.5 41.5q43 117 96 117q35 0 27 -65q0 -2 -2 -11.5t-5.5 -21.5l-7.5 -27q-12 -47 -32 -133q0 -2 -5.5 -16.5t-13.5 -43t-16 -61.5l-88 -325q-4 -14 -7.5 -29.5t-7.5 -30.5q-2 -8 -5 -16 t-4 -12l-3 -11.5t-4 -17.5q-14 -55 -18 -66q-10 -29 -23 -51q-37 -72 -94 -71q-37 0 -33 41zM287 1104q6 35 49 88q43 49 80 49q12 0 35 -45q23 -43 18 -59q-2 -37 -51 -78q-47 -41 -82 -41q-18 0 -37 31q-15 33 -12 55z" />
<glyph unicode="&#xa2;" horiz-adv-x="493" d="M98 315q3 22 80 172q-74 82 -45 246q23 121 119 234q104 119 219 118h16h11q2 0 4 -1t4 -1q82 150 131 150q35 0 33 -37q0 -2 -9.5 -17.5l-32 -54.5l-44.5 -77q84 -74 59 -203q-18 -96 -88 -105l-18 15l-9 80q-8 53 -20 71l-178 -321q28 -18 73 -19q10 0 39 6q28 6 43 7 q41 0 31 -41q-6 -47 -82 -78q-59 -27 -112 -27q-37 0 -68 10q-10 -20 -19.5 -36.5t-15.5 -28.5q-4 -10 -10 -21l-6 -10q-40 -61 -80 -61q-31 -1 -25 30zM274 670l86 157l72 134q-2 0 -6 1l-4 1h-6q-49 0 -86 -41q-39 -41 -47 -93q-19 -104 -9 -159z" />
<glyph unicode="&#xa5;" horiz-adv-x="786" d="M143 883q25 141 86 288q25 57 93 70l24 -16l-4 -19l-31 -84q-33 -94 -45 -170q-20 -131 0 -223q31 -125 146 -125q100 0 229 146q49 51 86 106l84 129l43 78q49 76 109 76q43 0 32 -45q-6 -27 -16 -58q-14 -43 -41 -114q-12 -33 -72 -179l-100 -239q37 4 47 4q6 0 14 1 l9 1q39 0 32 -37q-12 -66 -137 -86q63 8 90 8q43 0 33 -37q-12 -74 -186 -96q-2 -6 -8.5 -18.5t-8.5 -18.5q-2 -4 -4 -10t-4 -11t-4 -9q-47 -127 -47 -138q-41 -78 -107 -77q-39 0 -32 38q8 43 26 97l51 143q-96 23 -92 41q6 45 68 66q25 6 69 6l7 14q-129 25 -125 47 q12 74 174 70l78 182q-199 -211 -363 -211q-150 0 -199 137q-33 99 -4 273z" />
<glyph unicode="&#xa8;" horiz-adv-x="385" d="M274 1440q6 37 43 63q45 31 74 31q55 0 45 -61q-8 -37 -51 -62q-45 -29 -80 -29q-8 0 -20.5 23t-10.5 35zM459 1421q6 39 38.5 78t69.5 39q29 0 45 -16q18 -18 17 -45q-10 -41 -47 -66q-37 -29 -78 -29q-27 0 -37 9.5t-8 29.5z" />
<glyph unicode="&#xa9;" horiz-adv-x="796" d="M45 246q16 82 82 180q16 25 70 88q29 35 69 68q29 23 47 22q35 0 29 -33q0 -3 -80 -98q-80 -96 -92 -168q-29 -152 129 -188q-123 31 -104 125q14 84 133 190q119 104 204 105q27 0 52 -21q27 -23 20 -45q-6 -25 -26 -39q-23 -16 -46 -16q-8 0 -16 2t-16 2 q-61 0 -121 -58q-39 -35 -45 -63q-4 -25 14.5 -40t61.5 -23q10 -2 45 -3q8 0 35.5 -1t46.5 -1q39 0 32 -36q-6 -33 -55 -66q164 49 186 168q25 154 -176 274l-47 27q-27 20 -24 45q4 29 38.5 57.5t63.5 28.5q14 0 39 -10q295 -133 256 -352q-31 -172 -209 -285 q-158 -100 -336 -100q-125 0 -201 65q-82 72 -59 199z" />
<glyph unicode="&#xaa;" d="M27 111q16 84 96 147q82 63 168 64q4 0 11 -1.5t11 -1.5q6 0 27 -4q-37 33 -82 33q-25 0 -63 -20q-41 -20 -58 -21q-37 0 -28 39q6 45 98 90q86 43 135 43q86 0 135 -65q40 -50 41 -116q0 -19 -4 -40q-23 -119 -127 -197q-108 -80 -227 -79q-35 0 -60 8q-27 8 -45 24 q-16 14 -26 41q-5 13 -5 29q0 13 3 27zM169 158q0 -45 77 -45q78 0 106 45q-20 -12 -41 -13q-10 0 -42.5 20.5t-63.5 20.5q-36 0 -36 -28z" />
<glyph unicode="&#xab;" horiz-adv-x="696" d="M39 207q6 41 82 84q2 2 14 7t23 11l75 37q41 20 54 29q10 6 29.5 23.5t25.5 21.5q31 25 51 24q33 0 27 -34q-12 -72 -180 -160q164 -90 153 -150q-6 -29 -41 -57.5t-63 -28.5q-14 0 -23 6q-27 16 -45 31q-16 10 -36.5 26.5l-45.5 37.5q-55 43 -78.5 64.5t-21.5 27.5z M352 207q6 41 80 84l39 18q10 6 76 37q43 18 110 74q31 25 50 24q33 0 26 -34q-12 -72 -180 -160q162 -88 152 -150q-6 -31 -39 -57q-35 -29 -64 -29q-12 0 -22 6q-27 16 -45 31l-22.5 16.5t-24 19.5l-33.5 28q-57 45 -81 65.5t-22 26.5z" />
<glyph unicode="&#xad;" d="M39 205q6 33 45 53q70 41 272 41q160 0 154 -41q-6 -23 -39 -51.5t-59 -34.5q-18 -4 -95 -4h-22q-4 0 -15.5 1t-17.5 1q-25 2 -55 2q-27 0 -47 -2q-6 0 -15.5 -1t-13.5 -1h-18q-20 0 -43 10q-31 11 -31 27z" />
<glyph unicode="&#xae;" horiz-adv-x="892" d="M72 365q23 131 106 251q84 125 203 199q20 12 33 12q31 0 24 -32q-6 -20 -53 -66q-66 -59 -66 -61q-94 -102 -118 -242q-27 -162 75 -250q-8 70 0 127q49 276 181 385q66 59 125 60q55 0 77 -54q16 -43 7 -102q-25 -133 -168 -240q6 -4 20 -11t23 -11l43 -25 q55 -35 45 -76q-6 -31 -39 -57.5t-64 -26.5q-34 0 -153 86q-12 -66 -49 -88q53 -27 133 -26q125 0 225 69q109 74 131 197q14 80 -29 168q-31 57 -90 123q-51 55 -49 69q2 27 41 62q35 33 68 33q18 0 73 -50q174 -145 138 -350q-31 -180 -215 -321q-180 -131 -365 -131 q-172 0 -258 104q-86 107 -55 275zM410 408q66 43 79 57q29 29 37 90q12 63 -16 63q-51 1 -100 -210z" />
<glyph unicode="&#xb0;" horiz-adv-x="303" d="M178 1016q12 66 58 110l4 13q6 41 47 65q43 27 82 27q61 0 98 -45q39 -45 27 -107q-12 -76 -82 -127q-72 -53 -144 -53q-113 0 -90 117zM299 1067q-8 -49 47 -49q10 0 10 6q8 43 -45 68q-6 -10 -12 -25z" />
<glyph unicode="&#xb1;" horiz-adv-x="468" d="M0 -8q12 72 197 88q-6 31 -4 41l8 45q4 23 10 47h-10q-25 0 -41 -2q-4 0 -12.5 -1t-10.5 -1h-14q-20 0 -43 10q-18 8 -27.5 14.5t-7.5 12.5q4 29 47 53q49 31 144 37l4 31q4 25 12 51q4 12 10 18q12 12 19 17q2 0 9 6t11 8q8 4 21 4q51 0 28 -133q29 0 47.5 1t28.5 1h31 q16 0 41 -12q23 -10 18 -29q-4 -23 -35 -51q-33 -31 -55 -33q-18 -3 -43 -6h-51l-8 -49q-8 -45 -45 -76h40q53 0 88 -5t50.5 -13.5t13.5 -22.5q-6 -25 -39 -49q-29 -27 -59 -33q-28 -6 -92 -6q-33 0 -58 2q-6 0 -16 1t-14 1h-23h-20q-4 0 -12.5 -1t-14.5 -1q-20 -2 -47 -2 q-18 0 -45 12q-31 17 -31 25z" />
<glyph unicode="&#xb2;" horiz-adv-x="776" d="M31 180q18 113 211 277l180 137l178 137q193 156 209 250q25 129 -154 129q-88 0 -198 -37q-121 -41 -187 -96q-2 -2 -47 -41q-27 -23 -51 -29q-27 6 -22 33q2 16 34 55q84 102 262 172q168 66 295 66q106 0 164 -49q66 -53 43 -158q-20 -123 -217 -301q-33 -33 -108 -90 l-246 -191q-188 -145 -201 -208q-10 -57 44 -86t173 -29q16 0 86 4q16 0 123 10q129 14 207 15q49 0 43 -37q-3 -15 -12 -31q-8 -14 -25 -27q-20 -16 -31 -22q-20 -12 -32 -15l-4 -1q-4 -1 -11.5 -2t-15.5 -1q-6 0 -36 -5t-52 -7q-41 -4 -102.5 -9t-73.5 -5q-74 -6 -121 -6 q-117 0 -211 38q-114 54 -94 160z" />
<glyph unicode="&#xb3;" horiz-adv-x="804" d="M6 162q2 31 41 61q35 31 66 31q15 0 24 -6l53.5 -30.5t45.5 -24.5l63 -31q86 -37 186 -37q102 0 154 39q68 52 86 153q14 84 -47 156q-33 33 -127 98q-70 49 -59 84q6 41 167 166q164 123 172 180q8 45 -59 82q-53 29 -106 29q-66 0 -164 -35q-90 -33 -146 -82 q-77 -68 -98 -67q-25 0 -20 28q0 6 2 8.5t2 5.5q2 3 2 5q72 111 225 186q139 70 272 70q94 0 160 -47q78 -53 62 -140q-18 -88 -121 -184l-183 -149l164 -133q74 -80 54 -203q-29 -166 -177 -281q-147 -111 -315 -110q-88 0 -209 39q-123 47 -164 108q-12 13 -6 31z" />
<glyph unicode="&#xb4;" horiz-adv-x="344" d="M262 1313q2 31 148 151q90 74 125 74q45 0 34 -41q0 -4 -8 -18q-12 -29 -98 -97q-141 -111 -168 -110q-43 0 -33 41z" />
<glyph unicode="&#xb6;" horiz-adv-x="911" d="M131 692q31 180 256 359q225 180 406 180q109 0 180 -80q59 -68 71 -188q12 -86 -10 -201l-1 -3q-1 -3 -4 -18.5t-8 -34t-11 -50t-15 -64.5l-55 -250q-4 -18 -82 -350l-7 -28.5t-9 -31.5q-9 -28 -19 -49q-39 -82 -104 -82q-41 0 -31 41q14 70 17 80q6 29 11 48.5t13 54 t21 84.5q35 139 51 213q6 23 76 346l5 20t3 14q2 8 2 17q29 168 -8 256q-51 123 -164 123q-125 0 -273 -117q-154 -121 -176 -246q-20 -102 64 -184q72 -70 180 -90q2 14 7 39.5l7 36t5 23.5t3 18q6 31 23 141q10 61 12 106q2 37 5 60.5t3 32.5q2 20 3 26q6 31 34 55 q29 27 58 27q18 0 28 -22q18 -78 -22 -299q-18 -100 -51 -242q37 10 84 57q41 41 63 41q35 0 25 -35q-2 -14 -25 -45q-63 -94 -170 -125q-31 -141 -98 -516q-2 -12 -27 -37q-18 -16 -43 -16q-20 0 -26 18q-14 59 24 283l21 105l14 64.5t16 84.5q-162 4 -264 94 q-117 104 -88 256z" />
<glyph unicode="&#xb9;" horiz-adv-x="182" d="M18 43q-2 57 5 88q25 151 73 363l47 180l45 182l25 141q43 240 147 240q39 0 25 -82q-3 -22 -18 -80q-14 -59 -43 -162l-129 -503q-41 -168 -66 -293q-12 -78 -27 -97q-25 -41 -63 -40q-19 0 -21 63z" />
<glyph unicode="&#xba;" d="M25 143q23 117 108 222q101 117 209 116q84 0 135 -67q40 -52 41 -114q0 -18 -4 -36q-23 -111 -137 -196q-119 -86 -230 -86q-74 0 -106 45q-21 30 -21 72q0 21 5 44zM158 207q-3 -16 -3 -29q0 -65 62 -65q41 0 86 24q53 29 62 66q2 9 1 18q0 40 -30 78q-37 45 -82 45 q-71 0 -96 -137z" />
<glyph unicode="&#xbb;" horiz-adv-x="641" d="M53 57q6 37 176 146q-160 137 -153 176q4 12 8 20.5t16 20.5q8 8 21 14q8 4 24 4q12 0 140 -90q18 -10 37 -22q10 -6 18 -12.5l16 -12.5q53 -37 47 -55q-6 -41 -141 -133q-141 -94 -178 -95q-39 0 -31 39zM328 57q6 37 176 146q-162 137 -154 176q0 4 8 20q4 8 17 21 q8 8 20 14q8 4 22.5 4t141.5 -90q18 -10 36.5 -22.5l35.5 -24.5q55 -37 49 -55q-8 -41 -143 -133q-137 -94 -179 -95q-38 0 -30 39z" />
<glyph unicode="&#xbf;" horiz-adv-x="835" d="M39 176q23 113 215 262q111 84 133 99l219 139q188 121 195 151q0 4 -2 9q-2 2 -3 7t-1 7l-4 16q-2 6 -3 15q6 29 41 61q35 35 64 35q27 0 47.5 -31t13.5 -59q-18 -98 -213 -238l-178 -114l-178 -115q-188 -121 -201 -189q-10 -63 45.5 -94t178.5 -31q174 0 333 97l-2 4 q49 78 99 78q43 0 36 -47q-8 -33 -71 -88q-8 -6 -25.5 -20.5t-25.5 -20.5q-16 -12 -45 -29q-182 -100 -406 -100q-117 0 -188 36q-92 52 -74 160zM801 1055q10 57 65 116q55 61 111 62q16 0 38.5 -35t20.5 -49q-8 -47 -63 -96q-51 -45 -107 -45q-16 0 -43 16q-24 19 -22 31z " />
<glyph unicode="&#xc0;" horiz-adv-x="868" d="M80 479q45 264 262 490q59 59 107 96q68 51 116 82q152 90 258 90q176 0 176 -217q0 -62 -14 -141q-20 -133 -104 -334q-104 -258 -189 -258q-31 0 -24 28q0 4 4 13q145 299 180 489q13 72 13 126q0 161 -113 161q-129 0 -287 -143q-197 -178 -240 -418q-10 -58 -10 -110 q0 -166 104 -259q59 -51 130 -51q84 0 204 98q123 98 144 98q23 0 32 -24q27 -74 48 -98q14 -14 81 -64q23 -16 21 -37q-6 -33 -45 -63q-40 -31 -74 -31q-18 0 -47 16q-76 37 -113 117q-186 -150 -333 -149q-170 0 -250 164q-48 100 -48 215q0 55 11 114zM561 1497 q10 41 47 41q34 0 98 -74q104 -119 99 -151q-10 -41 -54 -41q-29 0 -127 110q-43 51 -47 52q-24 30 -16 63z" />
<glyph unicode="&#xc1;" horiz-adv-x="868" d="M80 479q45 264 262 490q59 59 107 96q68 51 116 82q152 90 258 90q176 0 176 -217q0 -62 -14 -141q-20 -133 -104 -334q-104 -258 -189 -258q-31 0 -24 28q0 4 4 13q145 299 180 489q13 72 13 126q0 161 -113 161q-129 0 -287 -143q-197 -178 -240 -418q-10 -58 -10 -110 q0 -166 104 -259q59 -51 130 -51q84 0 204 98q123 98 144 98q23 0 32 -24q27 -74 48 -98q14 -14 81 -64q23 -16 21 -37q-6 -33 -45 -63q-40 -31 -74 -31q-18 0 -47 16q-76 37 -113 117q-186 -150 -333 -149q-170 0 -250 164q-48 100 -48 215q0 55 11 114zM672 1313 q2 31 148 151q90 74 125 74q45 0 34 -41q0 -4 -8 -18q-12 -29 -98 -97q-141 -111 -168 -110q-43 0 -33 41z" />
<glyph unicode="&#xc2;" horiz-adv-x="868" d="M80 479q45 264 262 490q59 59 107 96q68 51 116 82q152 90 258 90q176 0 176 -217q0 -62 -14 -141q-20 -133 -104 -334q-104 -258 -189 -258q-31 0 -24 28q0 4 4 13q145 299 180 489q13 72 13 126q0 161 -113 161q-129 0 -287 -143q-197 -178 -240 -418q-10 -58 -10 -110 q0 -166 104 -259q59 -51 130 -51q84 0 204 98q123 98 144 98q23 0 32 -24q27 -74 48 -98q14 -14 81 -64q23 -16 21 -37q-6 -33 -45 -63q-40 -31 -74 -31q-18 0 -47 16q-76 37 -113 117q-186 -150 -333 -149q-170 0 -250 164q-48 100 -48 215q0 55 11 114zM625 1350 q8 51 98 118q92 70 144 70q49 0 84 -45q35 -43 26 -90q-6 -31 -39 -60q-33 -31 -59 -30q-31 0 -45 53t-33 53q-23 0 -74 -51q-49 -49 -75 -49q-29 0 -27 31z" />
<glyph unicode="&#xc3;" horiz-adv-x="868" d="M80 479q45 264 262 490q59 59 107 96q68 51 116 82q152 90 258 90q176 0 176 -217q0 -62 -14 -141q-20 -133 -104 -334q-104 -258 -189 -258q-31 0 -24 28q0 4 4 13q145 299 180 489q13 72 13 126q0 161 -113 161q-129 0 -287 -143q-197 -178 -240 -418q-10 -58 -10 -110 q0 -166 104 -259q59 -51 130 -51q84 0 204 98q123 98 144 98q23 0 32 -24q27 -74 48 -98q14 -14 81 -64q23 -16 21 -37q-6 -33 -45 -63q-40 -31 -74 -31q-18 0 -47 16q-76 37 -113 117q-186 -150 -333 -149q-170 0 -250 164q-48 100 -48 215q0 55 11 114zM615 1376q0 3 6 13 q6 8 16 24q80 125 176 125q41 0 76 -29q43 -39 62 -47q70 94 116 94q39 0 33 -36q-12 -61 -82 -125q-76 -66 -133 -66q-49 0 -90 47q-43 49 -61 49v-4l-21 -24l-20 -25q-25 -29 -54 -29q-30 0 -24 33z" />
<glyph unicode="&#xc4;" horiz-adv-x="868" d="M80 479q45 264 262 490q59 59 107 96q68 51 116 82q152 90 258 90q176 0 176 -217q0 -62 -14 -141q-20 -133 -104 -334q-104 -258 -189 -258q-31 0 -24 28q0 4 4 13q145 299 180 489q13 72 13 126q0 161 -113 161q-129 0 -287 -143q-197 -178 -240 -418q-10 -58 -10 -110 q0 -166 104 -259q59 -51 130 -51q84 0 204 98q123 98 144 98q23 0 32 -24q27 -74 48 -98q14 -14 81 -64q23 -16 21 -37q-6 -33 -45 -63q-40 -31 -74 -31q-18 0 -47 16q-76 37 -113 117q-186 -150 -333 -149q-170 0 -250 164q-48 100 -48 215q0 55 11 114zM561 1440 q6 37 43 63q45 31 74 31q55 0 45 -61q-8 -37 -51 -62q-45 -29 -80 -29q-8 0 -20.5 23t-10.5 35zM746 1421q6 39 38.5 78t69.5 39q29 0 45 -16q18 -18 17 -45q-10 -41 -47 -66q-37 -29 -78 -29q-27 0 -37 9.5t-8 29.5z" />
<glyph unicode="&#xc5;" horiz-adv-x="868" d="M80 479q45 264 262 490q59 59 107 96q68 51 116 82q152 90 258 90q176 0 176 -217q0 -62 -14 -141q-20 -133 -104 -334q-104 -258 -189 -258q-31 0 -24 28q0 4 4 13q145 299 180 489q13 72 13 126q0 161 -113 161q-129 0 -287 -143q-197 -178 -240 -418q-10 -58 -10 -110 q0 -166 104 -259q59 -51 130 -51q84 0 204 98q123 98 144 98q23 0 32 -24q27 -74 48 -98q14 -14 81 -64q23 -16 21 -37q-6 -33 -45 -63q-40 -31 -74 -31q-18 0 -47 16q-76 37 -113 117q-186 -150 -333 -149q-170 0 -250 164q-48 100 -48 215q0 55 11 114zM862 1456 q6 47 -43 70q-9 -12 -12 -25q-8 -49 47 -49q6 0 8 4zM999 1513q-12 -76 -82 -127q-72 -53 -143 -53q-106 0 -88 117q9 65 55 111l4 14q6 41 47 65q39 25 82 25q63 0 100 -45.5t25 -106.5z" />
<glyph unicode="&#xc6;" horiz-adv-x="1617" d="M80 479q45 264 262 490q59 59 107 96q68 51 116 82q152 90 258 90q227 0 162 -354q86 139 238 243q156 106 305 107q86 0 162 -41q86 -49 69 -133q-6 -37 -49 -92.5t-74 -55.5q-29 0 -22 29q0 2 4 14q4 8 8 18.5t8 18.5q0 2 3 7.5t3 7.5q10 51 -32.5 77.5t-139.5 26.5 q-154 0 -286 -127q-90 -88 -107 -174q-18 -90 60 -121q47 -16 153 -16q47 0 37 -41q-8 -49 -72 -80q-16 -8 -53 -21l-55 -20q-178 -76 -203 -211q-14 -90 60.5 -135t242.5 -45q78 0 242 35q170 35 242 34q39 0 32 -38q-12 -55 -84 -89q-23 -10 -104 -30q-74 -18 -160 -29 q-35 -4 -151 -14q-68 -6 -119 -6q-129 0 -228 41q-27 -20 -55 -21q-18 0 -47 16q-76 37 -113 117q-186 -150 -333 -149q-170 0 -250 164q-72 147 -37 329zM225 543q-43 -248 94 -369q59 -51 130 -51q80 0 202.5 98t145.5 98q6 0 16 -8q61 133 221 248q-82 33 -104 117 q-129 -389 -238 -389q-31 0 -24 28q0 4 4 13q70 150 119 278q47 123 61 211q53 287 -100 287q-129 0 -287 -143q-197 -178 -240 -418z" />
<glyph unicode="&#xc8;" horiz-adv-x="806" d="M20 244q29 164 238 315q-108 44 -108 147q0 20 4 42q18 100 110 208q29 35 88 95q49 49 92 75q158 106 308 107q86 0 161 -41q72 -41 72 -108q0 -12 -2 -25q-2 -33 -47 -92q-43 -55 -76 -56q-29 0 -22 29q0 2 3 7t3 7q0 4 4 10.5t4 8.5l6 18q0 2 3 7.5t3 7.5q2 9 2 17 q0 87 -176 87q-152 0 -282 -127q-96 -90 -109 -174q-3 -16 -3 -30q0 -65 64 -91q43 -16 154 -16q43 0 37 -41q-8 -47 -76 -80q-20 -10 -51 -21l-55 -20q-180 -76 -203 -211q-3 -16 -3 -31q0 -149 306 -149q78 0 242 35q43 10 143 24q68 10 98 10q34 0 34 -29q0 -67 -87 -102 q-39 -16 -104 -28q-98 -18 -160 -27q-37 -4 -150 -14q-68 -6 -118 -6q-150 0 -248 55q-102 60 -102 166q0 20 3 41zM500 1497q10 41 47 41q34 0 98 -74q104 -119 99 -151q-10 -41 -54 -41q-29 0 -127 110q-43 51 -47 52q-24 30 -16 63z" />
<glyph unicode="&#xc9;" horiz-adv-x="806" d="M20 244q29 164 238 315q-108 44 -108 147q0 20 4 42q18 100 110 208q29 35 88 95q49 49 92 75q158 106 308 107q86 0 161 -41q72 -41 72 -108q0 -12 -2 -25q-2 -33 -47 -92q-43 -55 -76 -56q-29 0 -22 29q0 2 3 7t3 7q0 4 4 10.5t4 8.5l6 18q0 2 3 7.5t3 7.5q2 9 2 17 q0 87 -176 87q-152 0 -282 -127q-96 -90 -109 -174q-3 -16 -3 -30q0 -65 64 -91q43 -16 154 -16q43 0 37 -41q-8 -47 -76 -80q-20 -10 -51 -21l-55 -20q-180 -76 -203 -211q-3 -16 -3 -31q0 -149 306 -149q78 0 242 35q43 10 143 24q68 10 98 10q34 0 34 -29q0 -67 -87 -102 q-39 -16 -104 -28q-98 -18 -160 -27q-37 -4 -150 -14q-68 -6 -118 -6q-150 0 -248 55q-102 60 -102 166q0 20 3 41zM631 1313q2 31 148 151q90 74 125 74q45 0 34 -41q0 -4 -8 -18q-12 -29 -98 -97q-141 -111 -168 -110q-43 0 -33 41z" />
<glyph unicode="&#xca;" horiz-adv-x="806" d="M20 244q29 164 238 315q-108 44 -108 147q0 20 4 42q18 100 110 208q29 35 88 95q49 49 92 75q158 106 308 107q86 0 161 -41q72 -41 72 -108q0 -12 -2 -25q-2 -33 -47 -92q-43 -55 -76 -56q-29 0 -22 29q0 2 3 7t3 7q0 4 4 10.5t4 8.5l6 18q0 2 3 7.5t3 7.5q2 9 2 17 q0 87 -176 87q-152 0 -282 -127q-96 -90 -109 -174q-3 -16 -3 -30q0 -65 64 -91q43 -16 154 -16q43 0 37 -41q-8 -47 -76 -80q-20 -10 -51 -21l-55 -20q-180 -76 -203 -211q-3 -16 -3 -31q0 -149 306 -149q78 0 242 35q43 10 143 24q68 10 98 10q34 0 34 -29q0 -67 -87 -102 q-39 -16 -104 -28q-98 -18 -160 -27q-37 -4 -150 -14q-68 -6 -118 -6q-150 0 -248 55q-102 60 -102 166q0 20 3 41zM522 1350q8 51 98 118q92 70 144 70q49 0 84 -45q35 -43 26 -90q-6 -31 -39 -60q-33 -31 -59 -30q-31 0 -45 53t-33 53q-23 0 -74 -51q-49 -49 -75 -49 q-29 0 -27 31z" />
<glyph unicode="&#xcb;" horiz-adv-x="806" d="M20 244q29 164 238 315q-108 44 -108 147q0 20 4 42q18 100 110 208q29 35 88 95q49 49 92 75q158 106 308 107q86 0 161 -41q72 -41 72 -108q0 -12 -2 -25q-2 -33 -47 -92q-43 -55 -76 -56q-29 0 -22 29q0 2 3 7t3 7q0 4 4 10.5t4 8.5l6 18q0 2 3 7.5t3 7.5q2 9 2 17 q0 87 -176 87q-152 0 -282 -127q-96 -90 -109 -174q-3 -16 -3 -30q0 -65 64 -91q43 -16 154 -16q43 0 37 -41q-8 -47 -76 -80q-20 -10 -51 -21l-55 -20q-180 -76 -203 -211q-3 -16 -3 -31q0 -149 306 -149q78 0 242 35q43 10 143 24q68 10 98 10q34 0 34 -29q0 -67 -87 -102 q-39 -16 -104 -28q-98 -18 -160 -27q-37 -4 -150 -14q-68 -6 -118 -6q-150 0 -248 55q-102 60 -102 166q0 20 3 41zM561 1440q6 37 43 63q45 31 74 31q55 0 45 -61q-8 -37 -51 -62q-45 -29 -80 -29q-8 0 -20.5 23t-10.5 35zM746 1421q6 39 38.5 78t69.5 39q29 0 45 -16 q18 -18 17 -45q-10 -41 -47 -66q-37 -29 -78 -29q-27 0 -37 9.5t-8 29.5z" />
<glyph unicode="&#xcc;" horiz-adv-x="190" d="M6 47q0 8 6 37l19.5 95.5t23.5 123.5q49 243 99 430q49 190 98 324q63 180 131 180q30 0 30 -31q0 -10 -3 -22q-4 -12 -7 -23q-2 -12 -12 -35q-40 -104 -74 -221q-39 -137 -63 -256q-23 -104 -35 -174q-10 -51 -15 -85t-15.5 -90t-22.5 -130q-18 -84 -33 -119 q-35 -78 -104 -78q-27 0 -27 38q0 15 4 36zM215 1497q10 41 47 41q34 0 98 -74q104 -119 99 -151q-10 -41 -54 -41q-29 0 -127 110q-43 51 -47 52q-24 30 -16 63z" />
<glyph unicode="&#xcd;" horiz-adv-x="190" d="M6 47q0 8 6 37l19.5 95.5t23.5 123.5q49 243 99 430q49 190 98 324q63 180 131 180q30 0 30 -31q0 -10 -3 -22q-4 -12 -7 -23q-2 -12 -12 -35q-40 -104 -74 -221q-39 -137 -63 -256q-23 -104 -35 -174q-10 -51 -15 -85t-15.5 -90t-22.5 -130q-18 -84 -33 -119 q-35 -78 -104 -78q-27 0 -27 38q0 15 4 36zM262 1313q2 31 148 151q90 74 125 74q45 0 34 -41q0 -4 -8 -18q-12 -29 -98 -97q-141 -111 -168 -110q-43 0 -33 41z" />
<glyph unicode="&#xce;" horiz-adv-x="190" d="M6 47q0 8 6 37l19.5 95.5t23.5 123.5q49 243 99 430q49 190 98 324q63 180 131 180q30 0 30 -31q0 -10 -3 -22q-4 -12 -7 -23q-2 -12 -12 -35q-40 -104 -74 -221q-39 -137 -63 -256q-23 -104 -35 -174q-10 -51 -15 -85t-15.5 -90t-22.5 -130q-18 -84 -33 -119 q-35 -78 -104 -78q-27 0 -27 38q0 15 4 36zM217 1350q8 51 98 118q92 70 144 70q49 0 84 -45q35 -43 26 -90q-6 -31 -39 -60q-33 -31 -59 -30q-31 0 -45 53t-33 53q-23 0 -74 -51q-49 -49 -75 -49q-29 0 -27 31z" />
<glyph unicode="&#xcf;" horiz-adv-x="190" d="M6 47q0 8 6 37l19.5 95.5t23.5 123.5q49 243 99 430q49 190 98 324q63 180 131 180q30 0 30 -31q0 -10 -3 -22q-4 -12 -7 -23q-2 -12 -12 -35q-40 -104 -74 -221q-39 -137 -63 -256q-23 -104 -35 -174q-10 -51 -15 -85t-15.5 -90t-22.5 -130q-18 -84 -33 -119 q-35 -78 -104 -78q-27 0 -27 38q0 15 4 36zM235 1440q6 37 43 63q45 31 74 31q55 0 45 -61q-8 -37 -51 -62q-45 -29 -80 -29q-8 0 -20.5 23t-10.5 35zM420 1421q6 39 38.5 78t69.5 39q29 0 45 -16q18 -18 17 -45q-10 -41 -47 -66q-37 -29 -78 -29q-27 0 -37 9.5t-8 29.5z " />
<glyph unicode="&#xd1;" horiz-adv-x="880" d="M-10 2l4 20q4 19 16.5 70t24.5 109l47 235q10 45 22.5 107.5l26.5 130.5q63 281 148 459q49 104 114 104q49 0 51 -186q0 -10 -4 -117q-2 -78 -12 -205q-6 -102 -6 -180q0 -100 4 -141q25 -289 162 -289q178 0 246 375q33 190 38 424v30q0 10 -1 31.5t-1 54.5 q0 8 -0.5 23t-0.5 22q0 12 1 21q2 20 7 53q6 31 43 61q40 31 67 31q25 0 31 -26q6 -25 6 -166q0 -293 -31 -459q-66 -358 -239 -512q-115 -98 -244 -98q-31 0 -53 6q-158 31 -178 364q-3 36 -4 94q0 37 1 89q2 96 17 305q-35 -123 -43 -156l-49 -211l-51 -217 q-6 -27 -13.5 -53.5t-14.5 -54t-11 -39.5q-18 -68 -31 -91q-33 -45 -72 -45q-20 0 -18 27zM451 1376q0 3 6 13q6 8 16 24q80 125 176 125q41 0 76 -29q43 -39 62 -47q70 94 116 94q39 0 33 -36q-12 -61 -82 -125q-76 -66 -133 -66q-49 0 -90 47q-43 49 -61 49v-4l-21 -24 l-20 -25q-25 -29 -54 -29q-30 0 -24 33z" />
<glyph unicode="&#xd2;" horiz-adv-x="880" d="M72 397q29 154 118 340q37 74 80 74q16 0 29 -23q0 -2 -1 -4t-4 -10t-9 -20q-6 -14 -13.5 -35t-19.5 -49q-49 -121 -62 -205q-8 -48 -8 -92q0 -82 29 -150q51 -119 184 -119q150 0 279 127q139 137 180 357q11 67 12 127q0 107 -37 200q-70 174 -237 175q-84 0 -182 -58 q-41 -23 -142 -106q-74 -57 -94 -58q-41 0 -35 37q6 22 31 49q100 113 229 191q150 92 273 92q201 0 291 -199q53 -116 52 -252q0 -64 -11 -133q-39 -223 -179 -395q-98 -121 -219 -192q-145 -84 -270 -84q-163 0 -234 129q-40 79 -39 183q0 49 9 103zM520 1497q10 41 47 41 q34 0 98 -74q104 -119 99 -151q-10 -41 -54 -41q-29 0 -127 110q-43 51 -47 52q-24 30 -16 63z" />
<glyph unicode="&#xd3;" horiz-adv-x="880" d="M72 397q29 154 118 340q37 74 80 74q16 0 29 -23q0 -2 -1 -4t-4 -10t-9 -20q-6 -14 -13.5 -35t-19.5 -49q-49 -121 -62 -205q-8 -48 -8 -92q0 -82 29 -150q51 -119 184 -119q150 0 279 127q139 137 180 357q11 67 12 127q0 107 -37 200q-70 174 -237 175q-84 0 -182 -58 q-41 -23 -142 -106q-74 -57 -94 -58q-41 0 -35 37q6 22 31 49q100 113 229 191q150 92 273 92q201 0 291 -199q53 -116 52 -252q0 -64 -11 -133q-39 -223 -179 -395q-98 -121 -219 -192q-145 -84 -270 -84q-163 0 -234 129q-40 79 -39 183q0 49 9 103zM590 1313 q2 31 148 151q90 74 125 74q45 0 34 -41q0 -4 -8 -18q-12 -29 -98 -97q-141 -111 -168 -110q-43 0 -33 41z" />
<glyph unicode="&#xd4;" horiz-adv-x="880" d="M72 397q29 154 118 340q37 74 80 74q16 0 29 -23q0 -2 -1 -4t-4 -10t-9 -20q-6 -14 -13.5 -35t-19.5 -49q-49 -121 -62 -205q-8 -48 -8 -92q0 -82 29 -150q51 -119 184 -119q150 0 279 127q139 137 180 357q11 67 12 127q0 107 -37 200q-70 174 -237 175q-84 0 -182 -58 q-41 -23 -142 -106q-74 -57 -94 -58q-41 0 -35 37q6 22 31 49q100 113 229 191q150 92 273 92q201 0 291 -199q53 -116 52 -252q0 -64 -11 -133q-39 -223 -179 -395q-98 -121 -219 -192q-145 -84 -270 -84q-163 0 -234 129q-40 79 -39 183q0 49 9 103zM522 1350q8 51 98 118 q92 70 144 70q49 0 84 -45q35 -43 26 -90q-6 -31 -39 -60q-33 -31 -59 -30q-31 0 -45 53t-33 53q-23 0 -74 -51q-49 -49 -75 -49q-29 0 -27 31z" />
<glyph unicode="&#xd5;" horiz-adv-x="880" d="M72 397q29 154 118 340q37 74 80 74q16 0 29 -23q0 -2 -1 -4t-4 -10t-9 -20q-6 -14 -13.5 -35t-19.5 -49q-49 -121 -62 -205q-8 -48 -8 -92q0 -82 29 -150q51 -119 184 -119q150 0 279 127q139 137 180 357q11 67 12 127q0 107 -37 200q-70 174 -237 175q-84 0 -182 -58 q-41 -23 -142 -106q-74 -57 -94 -58q-41 0 -35 37q6 22 31 49q100 113 229 191q150 92 273 92q201 0 291 -199q53 -116 52 -252q0 -64 -11 -133q-39 -223 -179 -395q-98 -121 -219 -192q-145 -84 -270 -84q-163 0 -234 129q-40 79 -39 183q0 49 9 103zM451 1376q0 3 6 13 q6 8 16 24q80 125 176 125q41 0 76 -29q43 -39 62 -47q70 94 116 94q39 0 33 -36q-12 -61 -82 -125q-76 -66 -133 -66q-49 0 -90 47q-43 49 -61 49v-4l-21 -24l-20 -25q-25 -29 -54 -29q-30 0 -24 33z" />
<glyph unicode="&#xd6;" horiz-adv-x="880" d="M72 397q29 154 118 340q37 74 80 74q16 0 29 -23q0 -2 -1 -4t-4 -10t-9 -20q-6 -14 -13.5 -35t-19.5 -49q-49 -121 -62 -205q-8 -48 -8 -92q0 -82 29 -150q51 -119 184 -119q150 0 279 127q139 137 180 357q11 67 12 127q0 107 -37 200q-70 174 -237 175q-84 0 -182 -58 q-41 -23 -142 -106q-74 -57 -94 -58q-41 0 -35 37q6 22 31 49q100 113 229 191q150 92 273 92q201 0 291 -199q53 -116 52 -252q0 -64 -11 -133q-39 -223 -179 -395q-98 -121 -219 -192q-145 -84 -270 -84q-163 0 -234 129q-40 79 -39 183q0 49 9 103zM540 1440q6 37 43 63 q45 31 74 31q55 0 45 -61q-8 -37 -51 -62q-45 -29 -80 -29q-8 0 -20.5 23t-10.5 35zM725 1421q6 39 38.5 78t69.5 39q29 0 45 -16q18 -18 17 -45q-10 -41 -47 -66q-37 -29 -78 -29q-27 0 -37 9.5t-8 29.5z" />
<glyph unicode="&#xd7;" horiz-adv-x="387" d="M14 72q6 35 123 145q-61 88 -57 113q4 14 10 22t19 21q6 6 22 14q12 6 25 6q27 0 92 -78q127 106 174 107q35 0 29 -37q-8 -43 -144 -135q94 -100 88 -131q-4 -27 -34.5 -51.5t-57.5 -24.5q-20 0 -115 113q-121 -115 -149 -115t-25 31z" />
<glyph unicode="&#xd8;" horiz-adv-x="880" d="M41 16q4 27 55 107q-53 106 -24 274q25 145 116 340q27 61 88 74l23 -18q-10 -31 -14 -41q-4 -8 -12.5 -31l-20.5 -53q-47 -117 -62 -203q-20 -113 5 -199l104 148l145 209l293 417q-66 49 -145 50q-84 0 -182 -58q-41 -23 -142 -106q-74 -57 -94 -58q-41 0 -35 37 q6 22 31 49q102 115 229 191q150 92 273 92q98 0 174 -55q49 49 80 49q49 0 39 -41q-2 -6 -45 -80q131 -176 84 -457q-41 -227 -179 -395q-102 -123 -219 -192q-143 -84 -270 -84q-98 0 -168 51q-49 -51 -96 -51q-39 -1 -31 34zM254 156q51 -51 141 -52q150 0 279 127 q139 137 180 357q37 219 -43 364l-236 -329z" />
<glyph unicode="&#xd9;" horiz-adv-x="913" d="M111 266q-12 75 -12 163q0 134 28 296q2 6 7 34.5l9 49.5q0 4 11.5 55l19.5 86q20 94 37 150l18 61q31 49 66 49q25 0 24 -37q0 -11 -2 -24q-6 -35 -32 -170l-13.5 -67l-12.5 -63.5t-7 -41.5q-32 -188 -32 -322q0 -54 5 -102q31 -272 215 -272q35 0 88 24 q297 147 396 696q0 2 10 66q6 39 12 92l15 94q10 63 10 66q2 25 43 57q37 31 65 31q23 0 27 -31v-13q0 -94 -39 -323q-77 -449 -356 -712q-180 -168 -342 -168q-209 0 -258 276zM520 1497q10 41 47 41q34 0 98 -74q104 -119 99 -151q-10 -41 -54 -41q-29 0 -127 110 q-43 51 -47 52q-24 30 -16 63z" />
<glyph unicode="&#xda;" horiz-adv-x="913" d="M111 266q-12 75 -12 163q0 134 28 296q2 6 7 34.5l9 49.5q0 4 11.5 55l19.5 86q20 94 37 150l18 61q31 49 66 49q25 0 24 -37q0 -11 -2 -24q-6 -35 -32 -170l-13.5 -67l-12.5 -63.5t-7 -41.5q-32 -188 -32 -322q0 -54 5 -102q31 -272 215 -272q35 0 88 24 q297 147 396 696q0 2 10 66q6 39 12 92l15 94q10 63 10 66q2 25 43 57q37 31 65 31q23 0 27 -31v-13q0 -94 -39 -323q-77 -449 -356 -712q-180 -168 -342 -168q-209 0 -258 276zM569 1313q2 31 148 151q90 74 125 74q45 0 34 -41q0 -4 -8 -18q-12 -29 -98 -97 q-141 -111 -168 -110q-43 0 -33 41z" />
<glyph unicode="&#xdb;" horiz-adv-x="913" d="M111 266q-12 75 -12 163q0 134 28 296q2 6 7 34.5l9 49.5q0 4 11.5 55l19.5 86q20 94 37 150l18 61q31 49 66 49q25 0 24 -37q0 -11 -2 -24q-6 -35 -32 -170l-13.5 -67l-12.5 -63.5t-7 -41.5q-32 -188 -32 -322q0 -54 5 -102q31 -272 215 -272q35 0 88 24 q297 147 396 696q0 2 10 66q6 39 12 92l15 94q10 63 10 66q2 25 43 57q37 31 65 31q23 0 27 -31v-13q0 -94 -39 -323q-77 -449 -356 -712q-180 -168 -342 -168q-209 0 -258 276zM522 1350q8 51 98 118q92 70 144 70q49 0 84 -45q35 -43 26 -90q-6 -31 -39 -60 q-33 -31 -59 -30q-31 0 -45 53t-33 53q-23 0 -74 -51q-49 -49 -75 -49q-29 0 -27 31z" />
<glyph unicode="&#xdc;" horiz-adv-x="913" d="M111 266q-12 75 -12 163q0 134 28 296q2 6 7 34.5l9 49.5q0 4 11.5 55l19.5 86q20 94 37 150l18 61q31 49 66 49q25 0 24 -37q0 -11 -2 -24q-6 -35 -32 -170l-13.5 -67l-12.5 -63.5t-7 -41.5q-32 -188 -32 -322q0 -54 5 -102q31 -272 215 -272q35 0 88 24 q297 147 396 696q0 2 10 66q6 39 12 92l15 94q10 63 10 66q2 25 43 57q37 31 65 31q23 0 27 -31v-13q0 -94 -39 -323q-77 -449 -356 -712q-180 -168 -342 -168q-209 0 -258 276zM540 1440q6 37 43 63q45 31 74 31q55 0 45 -61q-8 -37 -51 -62q-45 -29 -80 -29q-8 0 -20.5 23 t-10.5 35zM725 1421q6 39 38.5 78t69.5 39q29 0 45 -16q18 -18 17 -45q-10 -41 -47 -66q-37 -29 -78 -29q-27 0 -37 9.5t-8 29.5z" />
<glyph unicode="&#xdd;" horiz-adv-x="786" d="M143 883q28 151 86 288q27 59 93 70l24 -16l-4 -19l-16 -40l-15 -44q-33 -98 -45 -170q-11 -66 -11 -122t11 -101q31 -125 146 -125q178 0 399 381l43 78q49 76 109 76q34 0 34 -32q0 -6 -2 -13l-10 -39q-4 -14 -16 -51q-41 -115 -78 -203l-127 -309l-125 -297l-47 -136 q-39 -80 -107 -79q-39 0 -32 38q10 55 24 93l53 147q14 39 56 131l127 295q-199 -211 -367 -211q-150 0 -199 137q-17 52 -17 126q0 65 13 147zM528 1313q2 31 148 151q90 74 125 74q45 0 34 -41q0 -4 -8 -18q-12 -29 -98 -97q-141 -111 -168 -110q-43 0 -33 41z" />
<glyph unicode="&#xe0;" horiz-adv-x="473" d="M27 111q16 84 96 147q82 63 168 64q4 0 11 -1.5t11 -1.5q6 0 27 -4q-37 33 -82 33q-25 0 -63 -20q-41 -20 -58 -21q-37 0 -28 39q6 45 98 90q86 43 135 43q86 0 135 -65q40 -50 41 -116q0 -19 -4 -40q-23 -119 -127 -197q-108 -80 -227 -79q-35 0 -60 8q-27 8 -45 24 q-16 14 -26 41q-5 13 -5 29q0 13 3 27zM169 158q0 -45 77 -45q78 0 106 45q-20 -12 -41 -13q-10 0 -42.5 20.5t-63.5 20.5q-36 0 -36 -28zM189 762q10 41 47 41q34 0 98 -74q104 -119 99 -151q-10 -41 -54 -41q-29 0 -127 110q-43 51 -47 52q-24 30 -16 63z" />
<glyph unicode="&#xe1;" horiz-adv-x="473" d="M27 111q16 84 96 147q82 63 168 64q4 0 11 -1.5t11 -1.5q6 0 27 -4q-37 33 -82 33q-25 0 -63 -20q-41 -20 -58 -21q-37 0 -28 39q6 45 98 90q86 43 135 43q86 0 135 -65q40 -50 41 -116q0 -19 -4 -40q-23 -119 -127 -197q-108 -80 -227 -79q-35 0 -60 8q-27 8 -45 24 q-16 14 -26 41q-5 13 -5 29q0 13 3 27zM169 158q0 -45 77 -45q78 0 106 45q-20 -12 -41 -13q-10 0 -42.5 20.5t-63.5 20.5q-36 0 -36 -28zM258 578q2 31 148 151q90 74 125 74q45 0 34 -41q0 -4 -8 -18q-12 -29 -98 -97q-141 -111 -168 -110q-43 0 -33 41z" />
<glyph unicode="&#xe2;" horiz-adv-x="473" d="M27 111q16 84 96 147q82 63 168 64q4 0 11 -1.5t11 -1.5q6 0 27 -4q-37 33 -82 33q-25 0 -63 -20q-41 -20 -58 -21q-37 0 -28 39q6 45 98 90q86 43 135 43q86 0 135 -65q40 -50 41 -116q0 -19 -4 -40q-23 -119 -127 -197q-108 -80 -227 -79q-35 0 -60 8q-27 8 -45 24 q-16 14 -26 41q-5 13 -5 29q0 13 3 27zM169 158q0 -45 77 -45q78 0 106 45q-20 -12 -41 -13q-10 0 -42.5 20.5t-63.5 20.5q-36 0 -36 -28zM190 615q8 51 98 118q92 70 144 70q49 0 84 -45q35 -43 26 -90q-6 -31 -39 -60q-33 -31 -59 -30q-31 0 -45 53t-33 53q-23 0 -74 -51 q-49 -49 -75 -49q-29 0 -27 31z" />
<glyph unicode="&#xe3;" horiz-adv-x="473" d="M27 111q16 84 96 147q82 63 168 64q4 0 11 -1.5t11 -1.5q6 0 27 -4q-37 33 -82 33q-25 0 -63 -20q-41 -20 -58 -21q-37 0 -28 39q6 45 98 90q86 43 135 43q86 0 135 -65q40 -50 41 -116q0 -19 -4 -40q-23 -119 -127 -197q-108 -80 -227 -79q-35 0 -60 8q-27 8 -45 24 q-16 14 -26 41q-5 13 -5 29q0 13 3 27zM169 158q0 -45 77 -45q78 0 106 45q-20 -12 -41 -13q-10 0 -42.5 20.5t-63.5 20.5q-36 0 -36 -28zM140 641q0 3 6 13q6 8 16 24q80 125 176 125q41 0 76 -29q43 -39 62 -47q70 94 116 94q39 0 33 -36q-12 -61 -82 -125 q-76 -66 -133 -66q-49 0 -90 47q-43 49 -61 49v-4l-21 -24l-20 -25q-25 -29 -54 -29q-30 0 -24 33z" />
<glyph unicode="&#xe4;" horiz-adv-x="473" d="M27 111q16 84 96 147q82 63 168 64q4 0 11 -1.5t11 -1.5q6 0 27 -4q-37 33 -82 33q-25 0 -63 -20q-41 -20 -58 -21q-37 0 -28 39q6 45 98 90q86 43 135 43q86 0 135 -65q40 -50 41 -116q0 -19 -4 -40q-23 -119 -127 -197q-108 -80 -227 -79q-35 0 -60 8q-27 8 -45 24 q-16 14 -26 41q-5 13 -5 29q0 13 3 27zM169 158q0 -45 77 -45q78 0 106 45q-20 -12 -41 -13q-10 0 -42.5 20.5t-63.5 20.5q-36 0 -36 -28zM208 705q6 37 43 63q45 31 74 31q55 0 45 -61q-8 -37 -51 -62q-45 -29 -80 -29q-8 0 -20.5 23t-10.5 35zM393 686q6 39 38.5 78 t69.5 39q29 0 45 -16q18 -18 17 -45q-10 -41 -47 -66q-37 -29 -78 -29q-27 0 -37 9.5t-8 29.5z" />
<glyph unicode="&#xe5;" horiz-adv-x="473" d="M27 111q16 84 96 147q82 63 168 64q4 0 11 -1.5t11 -1.5q6 0 27 -4q-37 33 -82 33q-25 0 -63 -20q-41 -20 -58 -21q-37 0 -28 39q6 45 98 90q86 43 135 43q86 0 135 -65q40 -50 41 -116q0 -19 -4 -40q-23 -119 -127 -197q-108 -80 -227 -79q-35 0 -60 8q-27 8 -45 24 q-16 14 -26 41q-5 13 -5 29q0 13 3 27zM169 158q0 -45 77 -45q78 0 106 45q-20 -12 -41 -13q-10 0 -42.5 20.5t-63.5 20.5q-36 0 -36 -28zM428 721q6 47 -43 70q-9 -12 -12 -25q-8 -49 47 -49q6 0 8 4zM565 778q-12 -76 -82 -127q-72 -53 -143 -53q-106 0 -88 117 q9 65 55 111l4 14q6 41 47 65q39 25 82 25q63 0 100 -45.5t25 -106.5z" />
<glyph unicode="&#xe6;" horiz-adv-x="747" d="M27 162q18 113 114 213q102 104 213 104q57 0 90 -39q33 -37 25 -94l-8 -20q141 158 256 157q43 0 71 -34q29 -33 21 -80q-20 -121 -283 -248q12 0 19 -4h18q45 0 119 18q80 20 104 21q37 0 31 -39q-8 -59 -145 -103q-106 -31 -187 -30h-26q-4 0 -10.5 1t-8.5 1 q-14 -4 -47 -4q-59 0 -110 69q-90 -61 -158 -61q-63 0 -88 53q-22 51 -10 119zM174 223q-18 -98 35 -98q25 0 72 47q49 49 84 49q6 0 14 -4l24 37q-16 -8 -24 -8l-14 8l-25 63q-20 33 -55 33q-88 0 -111 -127zM485 195q182 94 189 122q2 10 -8 25q-9 12 -19 12 q-41 0 -94 -61l-41 -53q-17 -22 -27 -45z" />
<glyph unicode="&#xe8;" horiz-adv-x="440" d="M14 123q18 104 146 231q127 129 229 129q43 0 72 -34q22 -27 22 -61q0 -10 -2 -19q-20 -119 -286 -248q12 -4 41 -4q45 0 118 18q82 20 105 21q32 0 31 -29q0 -5 -1 -10q-12 -59 -147 -103q-104 -31 -184 -30q-146 0 -147 106q0 16 3 33zM160 195q187 98 187 127 q0 9 -9 20q-9 12 -19 12q-39 0 -94 -61q-45 -51 -65 -98zM189 762q10 41 47 41q34 0 98 -74q104 -119 99 -151q-10 -41 -54 -41q-29 0 -127 110q-43 51 -47 52q-24 30 -16 63z" />
<glyph unicode="&#xe9;" horiz-adv-x="440" d="M14 123q18 104 146 231q127 129 229 129q43 0 72 -34q22 -27 22 -61q0 -10 -2 -19q-20 -119 -286 -248q12 -4 41 -4q45 0 118 18q82 20 105 21q32 0 31 -29q0 -5 -1 -10q-12 -59 -147 -103q-104 -31 -184 -30q-146 0 -147 106q0 16 3 33zM160 195q187 98 187 127 q0 9 -9 20q-9 12 -19 12q-39 0 -94 -61q-45 -51 -65 -98zM237 578q2 31 148 151q90 74 125 74q45 0 34 -41q0 -4 -8 -18q-12 -29 -98 -97q-141 -111 -168 -110q-43 0 -33 41z" />
<glyph unicode="&#xea;" horiz-adv-x="440" d="M14 123q18 104 146 231q127 129 229 129q43 0 72 -34q22 -27 22 -61q0 -10 -2 -19q-20 -119 -286 -248q12 -4 41 -4q45 0 118 18q82 20 105 21q32 0 31 -29q0 -5 -1 -10q-12 -59 -147 -103q-104 -31 -184 -30q-146 0 -147 106q0 16 3 33zM160 195q187 98 187 127 q0 9 -9 20q-9 12 -19 12q-39 0 -94 -61q-45 -51 -65 -98zM190 615q8 51 98 118q92 70 144 70q49 0 84 -45q35 -43 26 -90q-6 -31 -39 -60q-33 -31 -59 -30q-31 0 -45 53t-33 53q-23 0 -74 -51q-49 -49 -75 -49q-29 0 -27 31z" />
<glyph unicode="&#xeb;" horiz-adv-x="440" d="M14 123q18 104 146 231q127 129 229 129q43 0 72 -34q22 -27 22 -61q0 -10 -2 -19q-20 -119 -286 -248q12 -4 41 -4q45 0 118 18q82 20 105 21q32 0 31 -29q0 -5 -1 -10q-12 -59 -147 -103q-104 -31 -184 -30q-146 0 -147 106q0 16 3 33zM160 195q187 98 187 127 q0 9 -9 20q-9 12 -19 12q-39 0 -94 -61q-45 -51 -65 -98zM188 705q6 37 43 63q45 31 74 31q55 0 45 -61q-8 -37 -51 -62q-45 -29 -80 -29q-8 0 -20.5 23t-10.5 35zM373 686q6 39 38.5 78t69.5 39q29 0 45 -16q18 -18 17 -45q-10 -41 -47 -66q-37 -29 -78 -29q-27 0 -37 9.5 t-8 29.5z" />
<glyph unicode="&#xec;" horiz-adv-x="155" d="M231 422l-2 -5q-2 -5 -7 -19.5t-10 -33t-14.5 -46t-19.5 -60.5q-6 -20 -23.5 -89l-29.5 -118q-6 -25 -39 -49q-35 -23 -59 -22q-31 0 -19 79q14 70 58 195q45 133 75 182q29 45 68 45q34 0 22 -59zM43 762q10 41 47 41q34 0 98 -74q104 -119 99 -151q-10 -41 -54 -41 q-29 0 -127 110q-43 51 -47 52q-24 30 -16 63z" />
<glyph unicode="&#xed;" horiz-adv-x="155" d="M231 422l-2 -5q-2 -5 -7 -19.5t-10 -33t-14.5 -46t-19.5 -60.5q-6 -20 -23.5 -89l-29.5 -118q-6 -25 -39 -49q-35 -23 -59 -22q-31 0 -19 79q14 70 58 195q45 133 75 182q29 45 68 45q34 0 22 -59zM115 578q2 31 148 151q90 74 125 74q45 0 34 -41q0 -4 -8 -18 q-12 -29 -98 -97q-141 -111 -168 -110q-43 0 -33 41z" />
<glyph unicode="&#xee;" horiz-adv-x="155" d="M231 422l-2 -5q-2 -5 -7 -19.5t-10 -33t-14.5 -46t-19.5 -60.5q-6 -20 -23.5 -89l-29.5 -118q-6 -25 -39 -49q-35 -23 -59 -22q-31 0 -19 79q14 70 58 195q45 133 75 182q29 45 68 45q34 0 22 -59zM68 615q8 51 98 118q92 70 144 70q49 0 84 -45q35 -43 26 -90 q-6 -31 -39 -60q-33 -31 -59 -30q-31 0 -45 53t-33 53q-23 0 -74 -51q-49 -49 -75 -49q-29 0 -27 31z" />
<glyph unicode="&#xef;" horiz-adv-x="155" d="M231 422l-2 -5q-2 -5 -7 -19.5t-10 -33t-14.5 -46t-19.5 -60.5q-6 -20 -23.5 -89l-29.5 -118q-6 -25 -39 -49q-35 -23 -59 -22q-31 0 -19 79q14 70 58 195q45 133 75 182q29 45 68 45q34 0 22 -59zM104 705q6 37 43 63q45 31 74 31q55 0 45 -61q-8 -37 -51 -62 q-45 -29 -80 -29q-8 0 -20.5 23t-10.5 35zM289 686q6 39 38.5 78t69.5 39q29 0 45 -16q18 -18 17 -45q-10 -41 -47 -66q-37 -29 -78 -29q-27 0 -37 9.5t-8 29.5z" />
<glyph unicode="&#xf1;" horiz-adv-x="354" d="M-10 55q12 90 90 201q76 106 160 170q74 55 120 55q41 0 60 -65q8 -35 8 -65q0 -21 -4 -42q-8 -51 -33 -123q-22 -61 -55 -129q-41 -74 -105 -73q-37 0 -30 39q6 29 24 75q31 70 31 78q2 8 5 16.5t6 19.5t5 19q8 27 15 66q6 49 -4 49q-45 0 -123 -133q-59 -109 -74 -178 q-2 -20 -29 -39q-23 -20 -43 -21q-14 0 -20 33q-5 18 -5 34q0 7 1 13zM115 620q0 3 6 13q6 8 16 24q80 125 176 125q41 0 76 -29q43 -39 62 -47q70 94 116 94q39 0 33 -36q-12 -61 -82 -125q-76 -66 -133 -66q-49 0 -90 47q-43 49 -61 49v-4l-21 -24l-20 -25 q-25 -29 -54 -29q-30 0 -24 33z" />
<glyph unicode="&#xf2;" d="M25 143q23 117 108 222q101 117 209 116q84 0 135 -67q40 -52 41 -114q0 -18 -4 -36q-23 -111 -137 -196q-119 -86 -230 -86q-74 0 -106 45q-21 30 -21 72q0 21 5 44zM158 207q-3 -16 -3 -29q0 -65 62 -65q41 0 86 24q53 29 62 66q2 9 1 18q0 40 -30 78q-37 45 -82 45 q-71 0 -96 -137zM189 762q10 41 47 41q34 0 98 -74q104 -119 99 -151q-10 -41 -54 -41q-29 0 -127 110q-43 51 -47 52q-24 30 -16 63z" />
<glyph unicode="&#xf3;" d="M25 143q23 117 108 222q101 117 209 116q84 0 135 -67q40 -52 41 -114q0 -18 -4 -36q-23 -111 -137 -196q-119 -86 -230 -86q-74 0 -106 45q-21 30 -21 72q0 21 5 44zM158 207q-3 -16 -3 -29q0 -65 62 -65q41 0 86 24q53 29 62 66q2 9 1 18q0 40 -30 78q-37 45 -82 45 q-71 0 -96 -137zM237 578q2 31 148 151q90 74 125 74q45 0 34 -41q0 -4 -8 -18q-12 -29 -98 -97q-141 -111 -168 -110q-43 0 -33 41z" />
<glyph unicode="&#xf4;" d="M25 143q23 117 108 222q101 117 209 116q84 0 135 -67q40 -52 41 -114q0 -18 -4 -36q-23 -111 -137 -196q-119 -86 -230 -86q-74 0 -106 45q-21 30 -21 72q0 21 5 44zM158 207q-3 -16 -3 -29q0 -65 62 -65q41 0 86 24q53 29 62 66q2 9 1 18q0 40 -30 78q-37 45 -82 45 q-71 0 -96 -137zM190 615q8 51 98 118q92 70 144 70q49 0 84 -45q35 -43 26 -90q-6 -31 -39 -60q-33 -31 -59 -30q-31 0 -45 53t-33 53q-23 0 -74 -51q-49 -49 -75 -49q-29 0 -27 31z" />
<glyph unicode="&#xf5;" d="M25 143q23 117 108 222q101 117 209 116q84 0 135 -67q40 -52 41 -114q0 -18 -4 -36q-23 -111 -137 -196q-119 -86 -230 -86q-74 0 -106 45q-21 30 -21 72q0 21 5 44zM158 207q-3 -16 -3 -29q0 -65 62 -65q41 0 86 24q53 29 62 66q2 9 1 18q0 40 -30 78q-37 45 -82 45 q-71 0 -96 -137zM135 620q0 3 6 13q6 8 16 24q80 125 176 125q41 0 76 -29q43 -39 62 -47q70 94 116 94q39 0 33 -36q-12 -61 -82 -125q-76 -66 -133 -66q-49 0 -90 47q-43 49 -61 49v-4l-21 -24l-20 -25q-25 -29 -54 -29q-30 0 -24 33z" />
<glyph unicode="&#xf6;" d="M25 143q23 117 108 222q101 117 209 116q84 0 135 -67q40 -52 41 -114q0 -18 -4 -36q-23 -111 -137 -196q-119 -86 -230 -86q-74 0 -106 45q-21 30 -21 72q0 21 5 44zM158 207q-3 -16 -3 -29q0 -65 62 -65q41 0 86 24q53 29 62 66q2 9 1 18q0 40 -30 78q-37 45 -82 45 q-71 0 -96 -137zM208 705q6 37 43 63q45 31 74 31q55 0 45 -61q-8 -37 -51 -62q-45 -29 -80 -29q-8 0 -20.5 23t-10.5 35zM393 686q6 39 38.5 78t69.5 39q29 0 45 -16q18 -18 17 -45q-10 -41 -47 -66q-37 -29 -78 -29q-27 0 -37 9.5t-8 29.5z" />
<glyph unicode="&#xf7;" horiz-adv-x="425" d="M49 229q12 65 178 68q-10 16 -6 35q25 129 115 129q16 0 22 -4q12 -8 17 -15q12 -16 12 -20q2 -12 0 -23q-10 -57 -92 -102q35 0 94 -14q39 -8 57.5 -16.5t16.5 -16.5q-6 -25 -37 -51q-29 -27 -53 -27q-42 0 -39 -6q2 -6 2 -12q-6 -37 -53 -82q-43 -43 -82 -43 q-25 0 -39 18q-14 16 -10 43q6 47 51 86q-121 8 -144 25q-14 8 -10 28z" />
<glyph unicode="&#xf8;" d="M10 -47q4 27 33 67q-34 43 -18 123q23 123 112 226q104 117 217 110q63 94 115 94q47 0 37 -41q-4 -23 -53 -94q80 -72 61 -174q-18 -106 -137 -196q-120 -86 -227 -86q-51 -70 -107 -70q-39 0 -33 41zM158 207v-9q2 1 12 15q2 4 11 15.5l22 29.5l15 23.5t16.5 24.5 l25.5 36q-4 1 -8 1v1q-69 0 -94 -137zM240 113q41 6 77 30q41 25 47.5 60t-16.5 73l-51 -77z" />
<glyph unicode="&#xf9;" horiz-adv-x="540" d="M29 172q8 51 82 176q82 131 129 131q33 0 26 -35q-8 -29 -51 -102q-25 -43 -35 -68q-14 -37 -16 -49t-2 -24q0 -25 8 -45q16 -41 47 -41q53 0 105 131q61 150 114 178q16 12 39 12q27 0 35 -26q0 -2 2 -13.5t6 -39l8 -54.5q2 -6 9.5 -35.5t11.5 -48.5l28 -106l-4 -13 q-6 -29 -43 -59q-39 -33 -65 -33q-35 0 -78 131q-127 -158 -248 -157q-68 0 -98 61q-15 39 -15 81q0 24 5 48zM229 762q10 41 47 41q34 0 98 -74q104 -119 99 -151q-10 -41 -54 -41q-29 0 -127 110q-43 51 -47 52q-24 30 -16 63z" />
<glyph unicode="&#xfa;" horiz-adv-x="540" d="M29 172q8 51 82 176q82 131 129 131q33 0 26 -35q-8 -29 -51 -102q-25 -43 -35 -68q-14 -37 -16 -49t-2 -24q0 -25 8 -45q16 -41 47 -41q53 0 105 131q61 150 114 178q16 12 39 12q27 0 35 -26q0 -2 2 -13.5t6 -39l8 -54.5q2 -6 9.5 -35.5t11.5 -48.5l28 -106l-4 -13 q-6 -29 -43 -59q-39 -33 -65 -33q-35 0 -78 131q-127 -158 -248 -157q-68 0 -98 61q-15 39 -15 81q0 24 5 48zM276 578q2 31 148 151q90 74 125 74q45 0 34 -41q0 -4 -8 -18q-12 -29 -98 -97q-141 -111 -168 -110q-43 0 -33 41z" />
<glyph unicode="&#xfb;" horiz-adv-x="540" d="M29 172q8 51 82 176q82 131 129 131q33 0 26 -35q-8 -29 -51 -102q-25 -43 -35 -68q-14 -37 -16 -49t-2 -24q0 -25 8 -45q16 -41 47 -41q53 0 105 131q61 150 114 178q16 12 39 12q27 0 35 -26q0 -2 2 -13.5t6 -39l8 -54.5q2 -6 9.5 -35.5t11.5 -48.5l28 -106l-4 -13 q-6 -29 -43 -59q-39 -33 -65 -33q-35 0 -78 131q-127 -158 -248 -157q-68 0 -98 61q-15 39 -15 81q0 24 5 48zM231 615q8 51 98 118q92 70 144 70q49 0 84 -45q35 -43 26 -90q-6 -31 -39 -60q-33 -31 -59 -30q-31 0 -45 53t-33 53q-23 0 -74 -51q-49 -49 -75 -49 q-29 0 -27 31z" />
<glyph unicode="&#xfc;" horiz-adv-x="540" d="M29 172q8 51 82 176q82 131 129 131q33 0 26 -35q-8 -29 -51 -102q-25 -43 -35 -68q-14 -37 -16 -49t-2 -24q0 -25 8 -45q16 -41 47 -41q53 0 105 131q61 150 114 178q16 12 39 12q27 0 35 -26q0 -2 2 -13.5t6 -39l8 -54.5q2 -6 9.5 -35.5t11.5 -48.5l28 -106l-4 -13 q-6 -29 -43 -59q-39 -33 -65 -33q-35 0 -78 131q-127 -158 -248 -157q-68 0 -98 61q-15 39 -15 81q0 24 5 48zM249 705q6 37 43 63q45 31 74 31q55 0 45 -61q-8 -37 -51 -62q-45 -29 -80 -29q-8 0 -20.5 23t-10.5 35zM434 686q6 39 38.5 78t69.5 39q29 0 45 -16 q18 -18 17 -45q-10 -41 -47 -66q-37 -29 -78 -29q-27 0 -37 9.5t-8 29.5z" />
<glyph unicode="&#xfd;" horiz-adv-x="473" d="M47 283q25 147 96 190q18 12 33 12q28 0 25 -30q-4 -14 -15 -31q-6 -10 -16 -57q-16 -89 -16 -148q0 -113 59 -113q27 0 88 105l37 65l37 68q16 27 45 49q33 27 53 27q47 0 53 -111q2 -18 2 -36q0 -57 -14 -119q-35 -199 -137 -445q-14 -33 -41 -53q-31 -25 -62 -25 q-27 0 -26 34q0 9 2 20q10 61 59 209q45 127 58 204q4 8 4 19q2 6 4 26q-131 -162 -228 -161q-113 0 -113 168q0 57 13 133zM217 578q2 31 148 151q90 74 125 74q45 0 34 -41q0 -4 -8 -18q-12 -29 -98 -97q-141 -111 -168 -110q-43 0 -33 41z" />
<glyph unicode="&#xff;" horiz-adv-x="473" d="M47 283q25 147 96 190q18 12 33 12q28 0 25 -30q-4 -14 -15 -31q-6 -10 -16 -57q-16 -89 -16 -148q0 -113 59 -113q27 0 88 105l37 65l37 68q16 27 45 49q33 27 53 27q47 0 53 -111q2 -18 2 -36q0 -57 -14 -119q-35 -199 -137 -445q-14 -33 -41 -53q-31 -25 -62 -25 q-27 0 -26 34q0 9 2 20q10 61 59 209q45 127 58 204q4 8 4 19q2 6 4 26q-131 -162 -228 -161q-113 0 -113 168q0 57 13 133zM229 705q6 37 43 63q45 31 74 31q55 0 45 -61q-8 -37 -51 -62q-45 -29 -80 -29q-8 0 -20.5 23t-10.5 35zM414 686q6 39 38.5 78t69.5 39 q29 0 45 -16q18 -18 17 -45q-10 -41 -47 -66q-37 -29 -78 -29q-27 0 -37 9.5t-8 29.5z" />
<glyph unicode="&#x130;" horiz-adv-x="155" d="M231 422l-2 -5q-2 -5 -7 -19.5t-10 -33t-14.5 -46t-19.5 -60.5q-6 -20 -23.5 -89l-29.5 -118q-6 -25 -39 -49q-35 -23 -59 -22q-31 0 -19 79q14 70 58 195q45 133 75 182q29 45 68 45q34 0 22 -59z" />
<glyph unicode="&#x2c7;" horiz-adv-x="397" d="M625 1497q0 -2 -3.5 -8t-5.5 -10q-35 -57 -104 -109q-76 -57 -129 -57q-51 0 -84 43q-35 43 -27 90q6 29 39 59q37 33 62 33q27 0 43 -53q18 -53 30 -53q23 0 74 51q49 51 78 51q33 0 27 -37z" />
<glyph unicode="&#x2da;" horiz-adv-x="303" d="M432 1456q6 47 -43 70q-9 -12 -12 -25q-8 -49 47 -49q6 0 8 4zM569 1513q-12 -76 -82 -127q-72 -53 -143 -53q-106 0 -88 117q9 65 55 111l4 14q6 41 47 65q39 25 82 25q63 0 100 -45.5t25 -106.5z" />
<glyph unicode="&#x2000;" horiz-adv-x="831" />
<glyph unicode="&#x2001;" horiz-adv-x="1665" />
<glyph unicode="&#x2002;" horiz-adv-x="831" />
<glyph unicode="&#x2003;" horiz-adv-x="1665" />
<glyph unicode="&#x2004;" horiz-adv-x="552" />
<glyph unicode="&#x2005;" horiz-adv-x="415" />
<glyph unicode="&#x2006;" horiz-adv-x="276" />
<glyph unicode="&#x2007;" horiz-adv-x="276" />
<glyph unicode="&#x2008;" horiz-adv-x="206" />
<glyph unicode="&#x2009;" horiz-adv-x="331" />
<glyph unicode="&#x200a;" horiz-adv-x="90" />
<glyph unicode="&#x2010;" d="M39 205q6 33 45 53q70 41 272 41q160 0 154 -41q-6 -23 -39 -51.5t-59 -34.5q-18 -4 -95 -4h-22q-4 0 -15.5 1t-17.5 1q-25 2 -55 2q-27 0 -47 -2q-6 0 -15.5 -1t-13.5 -1h-18q-20 0 -43 10q-31 11 -31 27z" />
<glyph unicode="&#x2011;" d="M39 205q6 33 45 53q70 41 272 41q160 0 154 -41q-6 -23 -39 -51.5t-59 -34.5q-18 -4 -95 -4h-22q-4 0 -15.5 1t-17.5 1q-25 2 -55 2q-27 0 -47 -2q-6 0 -15.5 -1t-13.5 -1h-18q-20 0 -43 10q-31 11 -31 27z" />
<glyph unicode="&#x2012;" d="M39 205q6 33 45 53q70 41 272 41q160 0 154 -41q-6 -23 -39 -51.5t-59 -34.5q-18 -4 -95 -4h-22q-4 0 -15.5 1t-17.5 1q-25 2 -55 2q-27 0 -47 -2q-6 0 -15.5 -1t-13.5 -1h-18q-20 0 -43 10q-31 11 -31 27z" />
<glyph unicode="&#x2013;" horiz-adv-x="1024" d="M39 168v131h1030v-131h-1030z" />
<glyph unicode="&#x2014;" horiz-adv-x="2048" d="M39 168v131h2054v-131h-2054z" />
<glyph unicode="&#x202f;" horiz-adv-x="331" />
<glyph unicode="&#x205f;" horiz-adv-x="415" />
<glyph unicode="&#xe000;" horiz-adv-x="480" d="M0 480h480v-480h-480v480z" />
<glyph unicode="&#xfb01;" horiz-adv-x="608" d="M461 59q14 70 58 195q45 133 75 182q29 45 68 45q26 0 26 -33q0 -11 -4 -26l-2 -5q-2 -5 -7 -19.5t-10 -33t-14.5 -46t-19.5 -60.5q-6 -20 -23.5 -89l-29.5 -118q-6 -25 -39 -49q-35 -23 -59 -22q-22 0 -22 43q0 15 3 36zM621 623q6 31 47 69q39 37 76 37q46 0 46 -38 q0 -7 -1 -15q-10 -41 -39 -76t-72 -35q-58 0 -58 44q0 7 1 14zM-12 -117q0 61 12 129q31 170 182 566q45 113 78 210l64 201q37 129 45 166q20 70 94 86l10 -22q0 -51 -8 -93q-29 -172 -123 -426l-111 -305q-10 -31 -20 -57.5t-16.5 -39.5t-6.5 -17q-6 -20 -26 -97 q-8 -31 -21 -92q-17 -96 -17 -163q0 -160 97 -160q55 0 74 98q2 9 1 18q0 60 -67 152q-76 104 -67 135q10 51 162 125q143 72 198 72q30 0 31 -28q0 -6 -2 -13q-8 -51 -84 -88q-33 -10 -64 -23l-61 -24l44.5 -64l29.5 -43l8 -12q26 -50 26 -105q0 -20 -4 -41 q-18 -98 -108 -194q-96 -102 -195 -103q-117 0 -147 142q-8 47 -8 110z" />
<glyph unicode="&#xfb02;" horiz-adv-x="585" d="M465 72q6 35 15.5 83l24 118.5l24.5 119.5l41 199l14 74t10 49l39 207l43 235q4 23 39 51.5t60 28.5q10 0 18 -8q6 -6 6 -25q0 -6 -4 -47q0 -8 -2 -20.5t-4 -27.5t-4 -28q-40 -218 -160 -755q-4 -14 -8 -41t-8 -39l-19 -78q-25 -125 -41 -148q-27 -45 -63 -45 q-25 0 -25 46q-1 21 4 51zM-12 -117q0 61 12 129q31 170 182 566q45 113 78 210l64 201q37 129 45 166q20 70 94 86l10 -22q0 -51 -8 -93q-29 -172 -123 -426l-111 -305q-10 -31 -20 -57.5t-16.5 -39.5t-6.5 -17q-6 -20 -26 -97q-8 -31 -21 -92q-17 -96 -17 -163 q0 -160 97 -160q55 0 74 98q2 9 1 18q0 60 -67 152q-76 104 -67 135q10 51 162 125q143 72 198 72q30 0 31 -28q0 -6 -2 -13q-8 -51 -84 -88q-33 -10 -64 -23l-61 -24l44.5 -64l29.5 -43l8 -12q26 -50 26 -105q0 -20 -4 -41q-18 -98 -108 -194q-96 -102 -195 -103 q-117 0 -147 142q-8 47 -8 110z" />
<glyph unicode="&#xfb03;" horiz-adv-x="1060" d="M911 59q14 70 58 195q45 133 75 182q29 45 68 45q26 0 26 -33q0 -11 -4 -26l-2 -5q-2 -5 -7 -19.5t-10 -33t-14.5 -46t-19.5 -60.5q-6 -20 -23.5 -89l-29.5 -118q-6 -25 -39 -49q-35 -23 -59 -22q-22 0 -22 43q0 15 3 36zM1071 623q6 31 47 69q39 37 76 37q46 0 46 -38 q0 -7 -1 -15q-10 -41 -39 -76t-72 -35q-58 0 -58 44q0 7 1 14zM441 -117q0 61 12 129q31 170 182 566q45 113 78 210l64 201q37 129 45 166q20 70 94 86l10 -22q0 -51 -8 -93q-29 -172 -123 -426l-111 -305q-10 -31 -20 -57.5t-16.5 -39.5t-6.5 -17q-6 -20 -26 -97 q-8 -31 -21 -92q-17 -96 -17 -163q0 -160 97 -160q55 0 74 98q2 9 1 18q0 60 -67 152q-76 104 -67 135q10 51 162 125q143 72 198 72q30 0 31 -28q0 -6 -2 -13q-8 -51 -84 -88q-33 -10 -64 -23l-61 -24l44.5 -64l29.5 -43l8 -12q26 -50 26 -105q0 -20 -4 -41 q-18 -98 -108 -194q-96 -102 -195 -103q-117 0 -147 142q-8 47 -8 110zM-12 -117q0 61 12 129q31 170 182 566q45 113 78 210l64 201q37 129 45 166q20 70 94 86l10 -22q0 -51 -8 -93q-29 -172 -123 -426l-111 -305q-10 -31 -20 -57.5t-16.5 -39.5t-6.5 -17q-6 -20 -26 -97 q-8 -31 -21 -92q-17 -96 -17 -163q0 -160 97 -160q55 0 74 98q2 9 1 18q0 60 -67 152q-76 104 -67 135q10 51 162 125q143 72 198 72q30 0 31 -28q0 -6 -2 -13q-8 -51 -84 -88q-33 -10 -64 -23l-61 -24l44.5 -64l29.5 -43l8 -12q26 -50 26 -105q0 -20 -4 -41 q-18 -98 -108 -194q-96 -102 -195 -103q-117 0 -147 142q-8 47 -8 110z" />
<glyph unicode="&#xfb04;" horiz-adv-x="1038" d="M915 72q6 35 15.5 83l24 118.5l24.5 119.5l41 199l14 74t10 49l39 207l43 235q4 23 39 51.5t60 28.5q10 0 18 -8q6 -6 6 -25q0 -6 -4 -47q0 -8 -2 -20.5t-4 -27.5t-4 -28q-40 -218 -160 -755q-4 -14 -8 -41t-8 -39l-19 -78q-25 -125 -41 -148q-27 -45 -63 -45 q-25 0 -25 46q-1 21 4 51zM441 -117q0 61 12 129q31 170 182 566q45 113 78 210l64 201q37 129 45 166q20 70 94 86l10 -22q0 -51 -8 -93q-29 -172 -123 -426l-111 -305q-10 -31 -20 -57.5t-16.5 -39.5t-6.5 -17q-6 -20 -26 -97q-8 -31 -21 -92q-17 -96 -17 -163 q0 -160 97 -160q55 0 74 98q2 9 1 18q0 60 -67 152q-76 104 -67 135q10 51 162 125q143 72 198 72q30 0 31 -28q0 -6 -2 -13q-8 -51 -84 -88q-33 -10 -64 -23l-61 -24l44.5 -64l29.5 -43l8 -12q26 -50 26 -105q0 -20 -4 -41q-18 -98 -108 -194q-96 -102 -195 -103 q-117 0 -147 142q-8 47 -8 110zM-12 -117q0 61 12 129q31 170 182 566q45 113 78 210l64 201q37 129 45 166q20 70 94 86l10 -22q0 -51 -8 -93q-29 -172 -123 -426l-111 -305q-10 -31 -20 -57.5t-16.5 -39.5t-6.5 -17q-6 -20 -26 -97q-8 -31 -21 -92q-17 -96 -17 -163 q0 -160 97 -160q55 0 74 98q2 9 1 18q0 60 -67 152q-76 104 -67 135q10 51 162 125q143 72 198 72q30 0 31 -28q0 -6 -2 -13q-8 -51 -84 -88q-33 -10 -64 -23l-61 -24l44.5 -64l29.5 -43l8 -12q26 -50 26 -105q0 -20 -4 -41q-18 -98 -108 -194q-96 -102 -195 -103 q-117 0 -147 142q-8 47 -8 110z" />
</font>
</defs>
</svg>
